<?xml version="1.0" encoding="utf-8"?>
<!-- Generator: Adobe Illustrator 26.2.1, SVG Export Plug-In . SVG Version: 6.00 Build 0)  -->
<svg version="1.2" baseProfile="tiny" id="g-2021Sept-Dec-Artboard_1-interactions-img" xmlns="http://www.w3.org/2000/svg" xmlns:xlink="http://www.w3.org/1999/xlink"
	 x="0px" y="0px" viewBox="0 0 1080 915" overflow="visible" xml:space="preserve">
<g>
	<g id="raid_00000046317274884684878460000012239281434813612440_">
		<path fill="#FFFFFF" stroke="#C1272D" stroke-width="2" stroke-miterlimit="10" d="M493.529,57.767h-5.741
			c2.243-0.755,3.837-2.644,3.837-4.85c0-2.888-2.694-5.215-6.023-5.215s-6.037,2.327-6.037,5.215c0,2.205,1.594,4.094,3.837,4.85
			h-5.727c-2.934,0-6.108,2.754-6.108,5.276v17.522c0,1.267,1.185,2.291,2.652,2.291c1.467,0,2.652-1.024,2.652-2.291V66.162h1.227
			v39.101c0,1.657,1.552,3.01,3.47,3.01s3.484-1.34,3.484-3.01v-22.7h1.128v22.688c0,1.657,1.552,3.01,3.484,3.01
			c1.918,0,3.47-1.34,3.47-3.01V66.162h1.227v14.402c0,1.267,1.185,2.291,2.652,2.291s2.652-1.024,2.652-2.291V63.043
			C499.623,60.521,496.449,57.767,493.529,57.767z"/>
		<path fill="#FFFFFF" stroke="#C1272D" stroke-width="2" stroke-miterlimit="10" d="M529.291,57.767h-5.741
			c2.243-0.755,3.837-2.644,3.837-4.85c0-2.888-2.694-5.215-6.023-5.215c-3.329,0-6.037,2.327-6.037,5.215
			c0,2.205,1.594,4.094,3.837,4.85h-5.727c-2.934,0-6.108,2.754-6.108,5.276v17.522c0,1.267,1.185,2.291,2.652,2.291
			c1.467,0,2.652-1.024,2.652-2.291V66.162h1.227v39.101c0,1.657,1.552,3.01,3.47,3.01c1.918,0,3.484-1.34,3.484-3.01v-22.7h1.128
			v22.688c0,1.657,1.552,3.01,3.484,3.01c1.918,0,3.47-1.34,3.47-3.01V66.162h1.227v14.402c0,1.267,1.185,2.291,2.652,2.291
			s2.652-1.024,2.652-2.291V63.043C535.384,60.521,532.211,57.767,529.291,57.767z"/>
		<path fill="#FFFFFF" stroke="#C1272D" stroke-width="2" stroke-miterlimit="10" d="M565.052,57.767h-5.741
			c2.243-0.755,3.837-2.644,3.837-4.85c0-2.888-2.694-5.215-6.023-5.215c-3.329,0-6.037,2.327-6.037,5.215
			c0,2.205,1.594,4.094,3.837,4.85h-5.727c-2.934,0-6.108,2.754-6.108,5.276v17.522c0,1.267,1.185,2.291,2.652,2.291
			c1.467,0,2.652-1.024,2.652-2.291V66.162h1.227v39.101c0,1.657,1.552,3.01,3.47,3.01c1.918,0,3.484-1.34,3.484-3.01v-22.7h1.128
			v22.688c0,1.657,1.552,3.01,3.484,3.01c1.918,0,3.47-1.34,3.47-3.01V66.162h1.227v14.402c0,1.267,1.185,2.291,2.652,2.291
			c1.467,0,2.652-1.024,2.652-2.291V63.043C571.146,60.521,567.972,57.767,565.052,57.767z"/>
		<path fill="#FFFFFF" stroke="#C1272D" stroke-width="2" stroke-miterlimit="10" d="M600.814,57.767h-5.741
			c2.243-0.755,3.837-2.644,3.837-4.85c0-2.888-2.694-5.215-6.023-5.215s-6.037,2.327-6.037,5.215c0,2.205,1.594,4.094,3.837,4.85
			h-5.727c-2.934,0-6.108,2.754-6.108,5.276v17.522c0,1.267,1.185,2.291,2.652,2.291s2.652-1.024,2.652-2.291V66.162h1.227v39.101
			c0,1.657,1.552,3.01,3.47,3.01c1.918,0,3.484-1.34,3.484-3.01v-22.7h1.128v22.688c0,1.657,1.552,3.01,3.484,3.01
			c1.918,0,3.47-1.34,3.47-3.01V66.162h1.227v14.402c0,1.267,1.185,2.291,2.652,2.291s2.652-1.024,2.652-2.291V63.043
			C606.908,60.521,603.734,57.767,600.814,57.767z"/>
		<path fill="#FFFFFF" stroke="#C1272D" stroke-width="2" stroke-miterlimit="10" d="M636.576,57.767h-5.741
			c2.243-0.755,3.837-2.644,3.837-4.85c0-2.888-2.694-5.215-6.023-5.215c-3.329,0-6.037,2.327-6.037,5.215
			c0,2.205,1.594,4.094,3.837,4.85h-5.727c-2.934,0-6.108,2.754-6.108,5.276v17.522c0,1.267,1.185,2.291,2.652,2.291
			s2.652-1.024,2.652-2.291V66.162h1.227v39.101c0,1.657,1.552,3.01,3.47,3.01s3.484-1.34,3.484-3.01v-22.7h1.128v22.688
			c0,1.657,1.552,3.01,3.484,3.01c1.918,0,3.47-1.34,3.47-3.01V66.162h1.227v14.402c0,1.267,1.185,2.291,2.652,2.291
			s2.652-1.024,2.652-2.291V63.043C642.669,60.521,639.495,57.767,636.576,57.767z"/>
		<path fill="#FFFFFF" stroke="#C1272D" stroke-width="2" stroke-miterlimit="10" d="M672.337,57.767h-5.741
			c2.243-0.755,3.837-2.644,3.837-4.85c0-2.888-2.694-5.215-6.023-5.215c-3.329,0-6.037,2.327-6.037,5.215
			c0,2.205,1.594,4.094,3.837,4.85h-5.727c-2.934,0-6.108,2.754-6.108,5.276v17.522c0,1.267,1.185,2.291,2.652,2.291
			c1.467,0,2.652-1.024,2.652-2.291V66.162h1.227v39.101c0,1.657,1.552,3.01,3.47,3.01c1.918,0,3.484-1.34,3.484-3.01v-22.7h1.128
			v22.688c0,1.657,1.552,3.01,3.484,3.01c1.918,0,3.47-1.34,3.47-3.01V66.162h1.227v14.402c0,1.267,1.185,2.291,2.652,2.291
			c1.467,0,2.652-1.024,2.652-2.291V63.043C678.431,60.521,675.257,57.767,672.337,57.767z"/>
		<path fill="#FFFFFF" stroke="#C1272D" stroke-width="2" stroke-miterlimit="10" d="M708.099,57.767h-5.741
			c2.243-0.755,3.837-2.644,3.837-4.85c0-2.888-2.694-5.215-6.023-5.215c-3.329,0-6.037,2.327-6.037,5.215
			c0,2.205,1.594,4.094,3.837,4.85h-5.727c-2.934,0-6.108,2.754-6.108,5.276v17.522c0,1.267,1.185,2.291,2.652,2.291
			s2.652-1.024,2.652-2.291V66.162h1.227v39.101c0,1.657,1.552,3.01,3.47,3.01c1.918,0,3.484-1.34,3.484-3.01v-22.7h1.128v22.688
			c0,1.657,1.552,3.01,3.484,3.01c1.918,0,3.47-1.34,3.47-3.01V66.162h1.227v14.402c0,1.267,1.185,2.291,2.652,2.291
			c1.467,0,2.652-1.024,2.652-2.291V63.043C714.193,60.521,711.019,57.767,708.099,57.767z"/>
		<path fill="#FFFFFF" stroke="#C1272D" stroke-width="2" stroke-miterlimit="10" d="M743.861,57.767h-5.741
			c2.243-0.755,3.837-2.644,3.837-4.85c0-2.888-2.694-5.215-6.023-5.215s-6.037,2.327-6.037,5.215c0,2.205,1.594,4.094,3.837,4.85
			h-5.727c-2.934,0-6.108,2.754-6.108,5.276v17.522c0,1.267,1.185,2.291,2.652,2.291s2.652-1.024,2.652-2.291V66.162h1.227v39.101
			c0,1.657,1.552,3.01,3.47,3.01s3.484-1.34,3.484-3.01v-22.7h1.128v22.688c0,1.657,1.552,3.01,3.484,3.01
			c1.918,0,3.47-1.34,3.47-3.01V66.162h1.227v14.402c0,1.267,1.185,2.291,2.652,2.291s2.652-1.024,2.652-2.291V63.043
			C749.954,60.521,746.78,57.767,743.861,57.767z"/>
		<path fill="#FFFFFF" stroke="#C1272D" stroke-width="2" stroke-miterlimit="10" d="M779.622,57.767h-5.741
			c2.243-0.755,3.837-2.644,3.837-4.85c0-2.888-2.694-5.215-6.023-5.215c-3.329,0-6.037,2.327-6.037,5.215
			c0,2.205,1.594,4.094,3.837,4.85h-5.727c-2.934,0-6.108,2.754-6.108,5.276v17.522c0,1.267,1.185,2.291,2.652,2.291
			c1.467,0,2.652-1.024,2.652-2.291V66.162h1.227v39.101c0,1.657,1.552,3.01,3.47,3.01s3.484-1.34,3.484-3.01v-22.7h1.128v22.688
			c0,1.657,1.552,3.01,3.484,3.01c1.918,0,3.47-1.34,3.47-3.01V66.162h1.227v14.402c0,1.267,1.185,2.291,2.652,2.291
			s2.652-1.024,2.652-2.291V63.043C785.716,60.521,782.542,57.767,779.622,57.767z"/>
		<path fill="#FFFFFF" stroke="#C1272D" stroke-width="2" stroke-miterlimit="10" d="M815.384,57.767h-5.741
			c2.243-0.755,3.837-2.644,3.837-4.85c0-2.888-2.694-5.215-6.023-5.215c-3.329,0-6.037,2.327-6.037,5.215
			c0,2.205,1.594,4.094,3.837,4.85h-5.727c-2.934,0-6.108,2.754-6.108,5.276v17.522c0,1.267,1.185,2.291,2.652,2.291
			c1.467,0,2.652-1.024,2.652-2.291V66.162h1.227v39.101c0,1.657,1.552,3.01,3.47,3.01c1.918,0,3.484-1.34,3.484-3.01v-22.7h1.128
			v22.688c0,1.657,1.552,3.01,3.484,3.01c1.918,0,3.47-1.34,3.47-3.01V66.162h1.227v14.402c0,1.267,1.185,2.291,2.652,2.291
			c1.467,0,2.652-1.024,2.652-2.291V63.043C821.477,60.521,818.304,57.767,815.384,57.767z"/>
		<path fill="#FFFFFF" stroke="#C1272D" stroke-width="2" stroke-miterlimit="10" d="M851.145,57.767h-5.741
			c2.243-0.755,3.837-2.644,3.837-4.85c0-2.888-2.694-5.215-6.023-5.215c-3.329,0-6.037,2.327-6.037,5.215
			c0,2.205,1.594,4.094,3.837,4.85h-5.727c-2.934,0-6.108,2.754-6.108,5.276v17.522c0,1.267,1.185,2.291,2.652,2.291
			s2.652-1.024,2.652-2.291V66.162h1.227v39.101c0,1.657,1.552,3.01,3.47,3.01c1.918,0,3.484-1.34,3.484-3.01v-22.7h1.128v22.688
			c0,1.657,1.552,3.01,3.484,3.01c1.918,0,3.47-1.34,3.47-3.01V66.162h1.227v14.402c0,1.267,1.185,2.291,2.652,2.291
			c1.467,0,2.652-1.024,2.652-2.291V63.043C857.239,60.521,854.065,57.767,851.145,57.767z"/>
		<path fill="#FFFFFF" stroke="#C1272D" stroke-width="2" stroke-miterlimit="10" d="M886.907,57.767h-5.741
			c2.243-0.755,3.837-2.644,3.837-4.85c0-2.888-2.694-5.215-6.023-5.215c-3.329,0-6.037,2.327-6.037,5.215
			c0,2.205,1.594,4.094,3.837,4.85h-5.727c-2.934,0-6.108,2.754-6.108,5.276v17.522c0,1.267,1.185,2.291,2.652,2.291
			s2.652-1.024,2.652-2.291V66.162h1.227v39.101c0,1.657,1.552,3.01,3.47,3.01s3.484-1.34,3.484-3.01v-22.7h1.128v22.688
			c0,1.657,1.552,3.01,3.484,3.01c1.918,0,3.47-1.34,3.47-3.01V66.162h1.227v14.402c0,1.267,1.185,2.291,2.652,2.291
			s2.652-1.024,2.652-2.291V63.043C893.001,60.521,889.827,57.767,886.907,57.767z"/>
		<path fill="#FFFFFF" stroke="#C1272D" stroke-width="2" stroke-miterlimit="10" d="M922.669,57.767h-5.741
			c2.243-0.755,3.837-2.644,3.837-4.85c0-2.888-2.694-5.215-6.023-5.215c-3.329,0-6.037,2.327-6.037,5.215
			c0,2.205,1.594,4.094,3.837,4.85h-5.727c-2.934,0-6.108,2.754-6.108,5.276v17.522c0,1.267,1.185,2.291,2.652,2.291
			c1.467,0,2.652-1.024,2.652-2.291V66.162h1.227v39.101c0,1.657,1.552,3.01,3.47,3.01c1.918,0,3.484-1.34,3.484-3.01v-22.7h1.128
			v22.688c0,1.657,1.552,3.01,3.484,3.01c1.918,0,3.47-1.34,3.47-3.01V66.162h1.227v14.402c0,1.267,1.185,2.291,2.652,2.291
			s2.652-1.024,2.652-2.291V63.043C928.762,60.521,925.589,57.767,922.669,57.767z"/>
		<path fill="#FFFFFF" stroke="#C1272D" stroke-width="2" stroke-miterlimit="10" d="M958.43,57.767h-5.741
			c2.243-0.755,3.837-2.644,3.837-4.85c0-2.888-2.694-5.215-6.023-5.215c-3.329,0-6.037,2.327-6.037,5.215
			c0,2.205,1.594,4.094,3.837,4.85h-5.727c-2.934,0-6.108,2.754-6.108,5.276v17.522c0,1.267,1.185,2.291,2.652,2.291
			c1.467,0,2.652-1.024,2.652-2.291V66.162h1.227v39.101c0,1.657,1.552,3.01,3.47,3.01c1.918,0,3.484-1.34,3.484-3.01v-22.7h1.128
			v22.688c0,1.657,1.552,3.01,3.484,3.01c1.918,0,3.47-1.34,3.47-3.01V66.162h1.227v14.402c0,1.267,1.185,2.291,2.652,2.291
			c1.467,0,2.652-1.024,2.652-2.291V63.043C964.524,60.521,961.35,57.767,958.43,57.767z"/>
		<path fill="#FFFFFF" stroke="#C1272D" stroke-width="2" stroke-miterlimit="10" d="M994.192,57.767h-5.741
			c2.243-0.755,3.837-2.644,3.837-4.85c0-2.888-2.694-5.215-6.023-5.215s-6.037,2.327-6.037,5.215c0,2.205,1.594,4.094,3.837,4.85
			h-5.727c-2.934,0-6.108,2.754-6.108,5.276v17.522c0,1.267,1.185,2.291,2.652,2.291s2.652-1.024,2.652-2.291V66.162h1.227v39.101
			c0,1.657,1.552,3.01,3.47,3.01c1.918,0,3.484-1.34,3.484-3.01v-22.7h1.128v22.688c0,1.657,1.552,3.01,3.484,3.01
			c1.918,0,3.47-1.34,3.47-3.01V66.162h1.227v14.402c0,1.267,1.185,2.291,2.652,2.291s2.652-1.024,2.652-2.291V63.043
			C1000.286,60.521,997.112,57.767,994.192,57.767z"/>
		<path fill="#FFFFFF" stroke="#C1272D" stroke-width="2" stroke-miterlimit="10" d="M1029.954,57.767h-5.741
			c2.243-0.755,3.837-2.644,3.837-4.85c0-2.888-2.694-5.215-6.023-5.215s-6.037,2.327-6.037,5.215c0,2.205,1.594,4.094,3.837,4.85
			h-5.727c-2.934,0-6.108,2.754-6.108,5.276v17.522c0,1.267,1.185,2.291,2.652,2.291s2.652-1.024,2.652-2.291V66.162h1.227v39.101
			c0,1.657,1.552,3.01,3.47,3.01s3.484-1.34,3.484-3.01v-22.7h1.128v22.688c0,1.657,1.552,3.01,3.484,3.01
			c1.918,0,3.47-1.34,3.47-3.01V66.162h1.227v14.402c0,1.267,1.185,2.291,2.652,2.291s2.652-1.024,2.652-2.291V63.043
			C1036.047,60.521,1032.874,57.767,1029.954,57.767z"/>
		<path fill="#FFFFFF" stroke="#C1272D" stroke-width="2" stroke-miterlimit="10" d="M1065.715,57.767h-5.741
			c2.243-0.755,3.837-2.644,3.837-4.85c0-2.888-2.694-5.215-6.023-5.215c-3.329,0-6.037,2.327-6.037,5.215
			c0,2.205,1.594,4.094,3.837,4.85h-5.727c-2.934,0-6.108,2.754-6.108,5.276v17.522c0,1.267,1.185,2.291,2.652,2.291
			c1.467,0,2.652-1.024,2.652-2.291V66.162h1.227v39.101c0,1.657,1.552,3.01,3.47,3.01s3.484-1.34,3.484-3.01v-22.7h1.128v22.688
			c0,1.657,1.552,3.01,3.484,3.01c1.918,0,3.47-1.34,3.47-3.01V66.162h1.227v14.402c0,1.267,1.185,2.291,2.652,2.291
			c1.467,0,2.652-1.024,2.652-2.291V63.043C1071.809,60.521,1068.635,57.767,1065.715,57.767z"/>
		<path fill="#FFFFFF" stroke="#C1272D" stroke-width="2" stroke-miterlimit="10" d="M29.528,127.134h-5.741
			c2.243-0.755,3.837-2.644,3.837-4.85c0-2.888-2.694-5.215-6.023-5.215s-6.037,2.327-6.037,5.215c0,2.205,1.594,4.094,3.837,4.85
			h-5.727c-2.934,0-6.108,2.754-6.108,5.276v17.522c0,1.267,1.185,2.291,2.652,2.291s2.652-1.024,2.652-2.291v-14.402h1.227v39.101
			c0,1.657,1.552,3.01,3.47,3.01s3.484-1.34,3.484-3.01v-22.7h1.128v22.688c0,1.657,1.552,3.01,3.484,3.01
			c1.918,0,3.47-1.34,3.47-3.01v-39.089h1.227v14.402c0,1.267,1.185,2.291,2.652,2.291c1.467,0,2.652-1.024,2.652-2.291V132.41
			C35.622,129.888,32.448,127.134,29.528,127.134z"/>
		<path fill="#FFFFFF" stroke="#C1272D" stroke-width="2" stroke-miterlimit="10" d="M65.29,127.134h-5.741
			c2.243-0.755,3.837-2.644,3.837-4.85c0-2.888-2.694-5.215-6.023-5.215s-6.037,2.327-6.037,5.215c0,2.205,1.594,4.094,3.837,4.85
			h-5.727c-2.934,0-6.108,2.754-6.108,5.276v17.522c0,1.267,1.185,2.291,2.652,2.291c1.467,0,2.652-1.024,2.652-2.291v-14.402h1.227
			v39.101c0,1.657,1.552,3.01,3.47,3.01s3.484-1.34,3.484-3.01v-22.7h1.128v22.688c0,1.657,1.552,3.01,3.484,3.01
			c1.918,0,3.47-1.34,3.47-3.01v-39.089h1.227v14.402c0,1.267,1.185,2.291,2.652,2.291s2.652-1.024,2.652-2.291V132.41
			C71.383,129.888,68.21,127.134,65.29,127.134z"/>
		<path fill="#FFFFFF" stroke="#C1272D" stroke-width="2" stroke-miterlimit="10" d="M101.051,127.134H95.31
			c2.243-0.755,3.837-2.644,3.837-4.85c0-2.888-2.694-5.215-6.023-5.215c-3.329,0-6.037,2.327-6.037,5.215
			c0,2.205,1.594,4.094,3.837,4.85h-5.727c-2.934,0-6.108,2.754-6.108,5.276v17.522c0,1.267,1.185,2.291,2.652,2.291
			c1.467,0,2.652-1.024,2.652-2.291v-14.402h1.227v39.101c0,1.657,1.552,3.01,3.47,3.01s3.484-1.34,3.484-3.01v-22.7h1.128v22.688
			c0,1.657,1.552,3.01,3.484,3.01c1.918,0,3.47-1.34,3.47-3.01v-39.089h1.227v14.402c0,1.267,1.185,2.291,2.652,2.291
			s2.652-1.024,2.652-2.291V132.41C107.145,129.888,103.971,127.134,101.051,127.134z"/>
		<path fill="#FFFFFF" stroke="#C1272D" stroke-width="2" stroke-miterlimit="10" d="M136.813,127.134h-5.741
			c2.243-0.755,3.837-2.644,3.837-4.85c0-2.888-2.694-5.215-6.023-5.215c-3.329,0-6.037,2.327-6.037,5.215
			c0,2.205,1.594,4.094,3.837,4.85h-5.727c-2.934,0-6.108,2.754-6.108,5.276v17.522c0,1.267,1.185,2.291,2.652,2.291
			c1.467,0,2.652-1.024,2.652-2.291v-14.402h1.227v39.101c0,1.657,1.552,3.01,3.47,3.01c1.918,0,3.484-1.34,3.484-3.01v-22.7h1.128
			v22.688c0,1.657,1.552,3.01,3.484,3.01c1.918,0,3.47-1.34,3.47-3.01v-39.089h1.227v14.402c0,1.267,1.185,2.291,2.652,2.291
			s2.652-1.024,2.652-2.291V132.41C142.907,129.888,139.733,127.134,136.813,127.134z"/>
		<path fill="#FFFFFF" stroke="#C1272D" stroke-width="2" stroke-miterlimit="10" d="M172.575,127.134h-5.741
			c2.243-0.755,3.837-2.644,3.837-4.85c0-2.888-2.694-5.215-6.023-5.215s-6.037,2.327-6.037,5.215c0,2.205,1.594,4.094,3.837,4.85
			h-5.727c-2.934,0-6.108,2.754-6.108,5.276v17.522c0,1.267,1.185,2.291,2.652,2.291s2.652-1.024,2.652-2.291v-14.402h1.227v39.101
			c0,1.657,1.552,3.01,3.47,3.01c1.918,0,3.484-1.34,3.484-3.01v-22.7h1.128v22.688c0,1.657,1.552,3.01,3.484,3.01
			c1.918,0,3.47-1.34,3.47-3.01v-39.089h1.227v14.402c0,1.267,1.185,2.291,2.652,2.291s2.652-1.024,2.652-2.291V132.41
			C178.668,129.888,175.495,127.134,172.575,127.134z"/>
		<path fill="#FFFFFF" stroke="#C1272D" stroke-width="2" stroke-miterlimit="10" d="M208.336,127.134h-5.741
			c2.243-0.755,3.837-2.644,3.837-4.85c0-2.888-2.694-5.215-6.023-5.215s-6.037,2.327-6.037,5.215c0,2.205,1.594,4.094,3.837,4.85
			h-5.727c-2.934,0-6.108,2.754-6.108,5.276v17.522c0,1.267,1.185,2.291,2.652,2.291s2.652-1.024,2.652-2.291v-14.402h1.227v39.101
			c0,1.657,1.552,3.01,3.47,3.01c1.918,0,3.484-1.34,3.484-3.01v-22.7h1.128v22.688c0,1.657,1.552,3.01,3.484,3.01
			c1.918,0,3.47-1.34,3.47-3.01v-39.089h1.227v14.402c0,1.267,1.185,2.291,2.652,2.291s2.652-1.024,2.652-2.291V132.41
			C214.43,129.888,211.256,127.134,208.336,127.134z"/>
		<path fill="#FFFFFF" stroke="#C1272D" stroke-width="2" stroke-miterlimit="10" d="M244.098,127.134h-5.741
			c2.243-0.755,3.837-2.644,3.837-4.85c0-2.888-2.694-5.215-6.023-5.215s-6.037,2.327-6.037,5.215c0,2.205,1.594,4.094,3.837,4.85
			h-5.727c-2.934,0-6.108,2.754-6.108,5.276v17.522c0,1.267,1.185,2.291,2.652,2.291s2.652-1.024,2.652-2.291v-14.402h1.227v39.101
			c0,1.657,1.552,3.01,3.47,3.01c1.918,0,3.484-1.34,3.484-3.01v-22.7h1.128v22.688c0,1.657,1.552,3.01,3.484,3.01
			c1.918,0,3.47-1.34,3.47-3.01v-39.089h1.227v14.402c0,1.267,1.185,2.291,2.652,2.291c1.467,0,2.652-1.024,2.652-2.291V132.41
			C250.192,129.888,247.018,127.134,244.098,127.134z"/>
		<path fill="#FFFFFF" stroke="#C1272D" stroke-width="2" stroke-miterlimit="10" d="M279.86,127.134h-5.741
			c2.243-0.755,3.837-2.644,3.837-4.85c0-2.888-2.694-5.215-6.023-5.215s-6.037,2.327-6.037,5.215c0,2.205,1.594,4.094,3.837,4.85
			h-5.727c-2.934,0-6.108,2.754-6.108,5.276v17.522c0,1.267,1.185,2.291,2.652,2.291s2.652-1.024,2.652-2.291v-14.402h1.227v39.101
			c0,1.657,1.552,3.01,3.47,3.01c1.918,0,3.484-1.34,3.484-3.01v-22.7h1.128v22.688c0,1.657,1.552,3.01,3.484,3.01
			c1.918,0,3.47-1.34,3.47-3.01v-39.089h1.227v14.402c0,1.267,1.185,2.291,2.652,2.291c1.467,0,2.652-1.024,2.652-2.291V132.41
			C285.953,129.888,282.78,127.134,279.86,127.134z"/>
		<path fill="#FFFFFF" stroke="#C1272D" stroke-width="2" stroke-miterlimit="10" d="M315.621,127.134h-5.741
			c2.243-0.755,3.837-2.644,3.837-4.85c0-2.888-2.694-5.215-6.023-5.215c-3.329,0-6.037,2.327-6.037,5.215
			c0,2.205,1.594,4.094,3.837,4.85h-5.727c-2.934,0-6.108,2.754-6.108,5.276v17.522c0,1.267,1.185,2.291,2.652,2.291
			c1.467,0,2.652-1.024,2.652-2.291v-14.402h1.227v39.101c0,1.657,1.552,3.01,3.47,3.01c1.918,0,3.484-1.34,3.484-3.01v-22.7h1.128
			v22.688c0,1.657,1.552,3.01,3.484,3.01c1.918,0,3.47-1.34,3.47-3.01v-39.089h1.227v14.402c0,1.267,1.185,2.291,2.652,2.291
			c1.467,0,2.652-1.024,2.652-2.291V132.41C321.715,129.888,318.541,127.134,315.621,127.134z"/>
		<path fill="#FFFFFF" stroke="#C1272D" stroke-width="2" stroke-miterlimit="10" d="M351.383,127.134h-5.741
			c2.243-0.755,3.837-2.644,3.837-4.85c0-2.888-2.694-5.215-6.023-5.215s-6.037,2.327-6.037,5.215c0,2.205,1.594,4.094,3.837,4.85
			h-5.727c-2.934,0-6.108,2.754-6.108,5.276v17.522c0,1.267,1.185,2.291,2.652,2.291c1.467,0,2.652-1.024,2.652-2.291v-14.402h1.227
			v39.101c0,1.657,1.552,3.01,3.47,3.01s3.484-1.34,3.484-3.01v-22.7h1.128v22.688c0,1.657,1.552,3.01,3.484,3.01
			c1.918,0,3.47-1.34,3.47-3.01v-39.089h1.227v14.402c0,1.267,1.185,2.291,2.652,2.291c1.467,0,2.652-1.024,2.652-2.291V132.41
			C357.477,129.888,354.303,127.134,351.383,127.134z"/>
		<path fill="#FFFFFF" stroke="#C1272D" stroke-width="2" stroke-miterlimit="10" d="M387.145,127.134h-5.741
			c2.243-0.755,3.837-2.644,3.837-4.85c0-2.888-2.694-5.215-6.023-5.215s-6.037,2.327-6.037,5.215c0,2.205,1.594,4.094,3.837,4.85
			h-5.727c-2.934,0-6.108,2.754-6.108,5.276v17.522c0,1.267,1.185,2.291,2.652,2.291c1.467,0,2.652-1.024,2.652-2.291v-14.402h1.227
			v39.101c0,1.657,1.552,3.01,3.47,3.01c1.918,0,3.484-1.34,3.484-3.01v-22.7h1.128v22.688c0,1.657,1.552,3.01,3.484,3.01
			c1.918,0,3.47-1.34,3.47-3.01v-39.089h1.227v14.402c0,1.267,1.185,2.291,2.652,2.291c1.467,0,2.652-1.024,2.652-2.291V132.41
			C393.238,129.888,390.064,127.134,387.145,127.134z"/>
		<path fill="#FFFFFF" stroke="#C1272D" stroke-width="2" stroke-miterlimit="10" d="M422.906,127.134h-5.741
			c2.243-0.755,3.837-2.644,3.837-4.85c0-2.888-2.694-5.215-6.023-5.215s-6.037,2.327-6.037,5.215c0,2.205,1.594,4.094,3.837,4.85
			h-5.727c-2.934,0-6.108,2.754-6.108,5.276v17.522c0,1.267,1.185,2.291,2.652,2.291c1.467,0,2.652-1.024,2.652-2.291v-14.402h1.227
			v39.101c0,1.657,1.552,3.01,3.47,3.01s3.484-1.34,3.484-3.01v-22.7h1.128v22.688c0,1.657,1.552,3.01,3.484,3.01
			c1.918,0,3.47-1.34,3.47-3.01v-39.089h1.227v14.402c0,1.267,1.185,2.291,2.652,2.291c1.467,0,2.652-1.024,2.652-2.291V132.41
			C429,129.888,425.826,127.134,422.906,127.134z"/>
		<path fill="#FFFFFF" stroke="#C1272D" stroke-width="2" stroke-miterlimit="10" d="M458.668,127.134h-5.741
			c2.243-0.755,3.837-2.644,3.837-4.85c0-2.888-2.694-5.215-6.023-5.215s-6.037,2.327-6.037,5.215c0,2.205,1.594,4.094,3.837,4.85
			h-5.727c-2.934,0-6.108,2.754-6.108,5.276v17.522c0,1.267,1.185,2.291,2.652,2.291c1.467,0,2.652-1.024,2.652-2.291v-14.402h1.227
			v39.101c0,1.657,1.552,3.01,3.47,3.01c1.918,0,3.484-1.34,3.484-3.01v-22.7h1.128v22.688c0,1.657,1.552,3.01,3.484,3.01
			c1.918,0,3.47-1.34,3.47-3.01v-39.089h1.227v14.402c0,1.267,1.185,2.291,2.652,2.291c1.467,0,2.652-1.024,2.652-2.291V132.41
			C464.761,129.888,461.588,127.134,458.668,127.134z"/>
		<path fill="#FFFFFF" stroke="#C1272D" stroke-width="2" stroke-miterlimit="10" d="M494.429,127.134h-5.741
			c2.243-0.755,3.837-2.644,3.837-4.85c0-2.888-2.694-5.215-6.023-5.215s-6.037,2.327-6.037,5.215c0,2.205,1.594,4.094,3.837,4.85
			h-5.727c-2.934,0-6.108,2.754-6.108,5.276v17.522c0,1.267,1.185,2.291,2.652,2.291c1.467,0,2.652-1.024,2.652-2.291v-14.402h1.227
			v39.101c0,1.657,1.552,3.01,3.47,3.01s3.484-1.34,3.484-3.01v-22.7h1.128v22.688c0,1.657,1.552,3.01,3.484,3.01
			c1.918,0,3.47-1.34,3.47-3.01v-39.089h1.227v14.402c0,1.267,1.185,2.291,2.652,2.291s2.652-1.024,2.652-2.291V132.41
			C500.523,129.888,497.349,127.134,494.429,127.134z"/>
		<path fill="#FFFFFF" stroke="#C1272D" stroke-width="2" stroke-miterlimit="10" d="M530.191,127.134h-5.741
			c2.243-0.755,3.837-2.644,3.837-4.85c0-2.888-2.694-5.215-6.023-5.215c-3.329,0-6.037,2.327-6.037,5.215
			c0,2.205,1.594,4.094,3.837,4.85h-5.727c-2.934,0-6.108,2.754-6.108,5.276v17.522c0,1.267,1.185,2.291,2.652,2.291
			c1.467,0,2.652-1.024,2.652-2.291v-14.402h1.227v39.101c0,1.657,1.552,3.01,3.47,3.01c1.918,0,3.484-1.34,3.484-3.01v-22.7h1.128
			v22.688c0,1.657,1.552,3.01,3.484,3.01c1.918,0,3.47-1.34,3.47-3.01v-39.089h1.227v14.402c0,1.267,1.185,2.291,2.652,2.291
			s2.652-1.024,2.652-2.291V132.41C536.285,129.888,533.111,127.134,530.191,127.134z"/>
		<path fill="#FFFFFF" stroke="#C1272D" stroke-width="2" stroke-miterlimit="10" d="M565.953,127.134h-5.741
			c2.243-0.755,3.837-2.644,3.837-4.85c0-2.888-2.694-5.215-6.023-5.215c-3.329,0-6.037,2.327-6.037,5.215
			c0,2.205,1.594,4.094,3.837,4.85h-5.727c-2.934,0-6.108,2.754-6.108,5.276v17.522c0,1.267,1.185,2.291,2.652,2.291
			c1.467,0,2.652-1.024,2.652-2.291v-14.402h1.227v39.101c0,1.657,1.552,3.01,3.47,3.01c1.918,0,3.484-1.34,3.484-3.01v-22.7h1.128
			v22.688c0,1.657,1.552,3.01,3.484,3.01c1.918,0,3.47-1.34,3.47-3.01v-39.089h1.227v14.402c0,1.267,1.185,2.291,2.652,2.291
			c1.467,0,2.652-1.024,2.652-2.291V132.41C572.046,129.888,568.873,127.134,565.953,127.134z"/>
		<path fill="#FFFFFF" stroke="#C1272D" stroke-width="2" stroke-miterlimit="10" d="M601.714,127.134h-5.741
			c2.243-0.755,3.837-2.644,3.837-4.85c0-2.888-2.694-5.215-6.023-5.215s-6.037,2.327-6.037,5.215c0,2.205,1.594,4.094,3.837,4.85
			h-5.727c-2.934,0-6.108,2.754-6.108,5.276v17.522c0,1.267,1.185,2.291,2.652,2.291s2.652-1.024,2.652-2.291v-14.402h1.227v39.101
			c0,1.657,1.552,3.01,3.47,3.01c1.918,0,3.484-1.34,3.484-3.01v-22.7h1.128v22.688c0,1.657,1.552,3.01,3.484,3.01
			c1.918,0,3.47-1.34,3.47-3.01v-39.089h1.227v14.402c0,1.267,1.185,2.291,2.652,2.291s2.652-1.024,2.652-2.291V132.41
			C607.808,129.888,604.634,127.134,601.714,127.134z"/>
		<path fill="#FFFFFF" stroke="#C1272D" stroke-width="2" stroke-miterlimit="10" d="M637.476,127.134h-5.741
			c2.243-0.755,3.837-2.644,3.837-4.85c0-2.888-2.694-5.215-6.023-5.215c-3.329,0-6.037,2.327-6.037,5.215
			c0,2.205,1.594,4.094,3.837,4.85h-5.727c-2.934,0-6.108,2.754-6.108,5.276v17.522c0,1.267,1.185,2.291,2.652,2.291
			s2.652-1.024,2.652-2.291v-14.402h1.227v39.101c0,1.657,1.552,3.01,3.47,3.01s3.484-1.34,3.484-3.01v-22.7h1.128v22.688
			c0,1.657,1.552,3.01,3.484,3.01c1.918,0,3.47-1.34,3.47-3.01v-39.089h1.227v14.402c0,1.267,1.185,2.291,2.652,2.291
			s2.652-1.024,2.652-2.291V132.41C643.57,129.888,640.396,127.134,637.476,127.134z"/>
		<path fill="#FFFFFF" stroke="#C1272D" stroke-width="2" stroke-miterlimit="10" d="M673.238,127.134h-5.741
			c2.243-0.755,3.837-2.644,3.837-4.85c0-2.888-2.694-5.215-6.023-5.215c-3.329,0-6.037,2.327-6.037,5.215
			c0,2.205,1.594,4.094,3.837,4.85h-5.727c-2.934,0-6.108,2.754-6.108,5.276v17.522c0,1.267,1.185,2.291,2.652,2.291
			c1.467,0,2.652-1.024,2.652-2.291v-14.402h1.227v39.101c0,1.657,1.552,3.01,3.47,3.01c1.918,0,3.484-1.34,3.484-3.01v-22.7h1.128
			v22.688c0,1.657,1.552,3.01,3.484,3.01c1.918,0,3.47-1.34,3.47-3.01v-39.089h1.227v14.402c0,1.267,1.185,2.291,2.652,2.291
			c1.467,0,2.652-1.024,2.652-2.291V132.41C679.331,129.888,676.158,127.134,673.238,127.134z"/>
		<path fill="#FFFFFF" stroke="#C1272D" stroke-width="2" stroke-miterlimit="10" d="M708.999,127.134h-5.741
			c2.243-0.755,3.837-2.644,3.837-4.85c0-2.888-2.694-5.215-6.023-5.215c-3.329,0-6.037,2.327-6.037,5.215
			c0,2.205,1.594,4.094,3.837,4.85h-5.727c-2.934,0-6.108,2.754-6.108,5.276v17.522c0,1.267,1.185,2.291,2.652,2.291
			s2.652-1.024,2.652-2.291v-14.402h1.227v39.101c0,1.657,1.552,3.01,3.47,3.01c1.918,0,3.484-1.34,3.484-3.01v-22.7h1.128v22.688
			c0,1.657,1.552,3.01,3.484,3.01c1.918,0,3.47-1.34,3.47-3.01v-39.089h1.227v14.402c0,1.267,1.185,2.291,2.652,2.291
			c1.467,0,2.652-1.024,2.652-2.291V132.41C715.093,129.888,711.919,127.134,708.999,127.134z"/>
		<path fill="#FFFFFF" stroke="#C1272D" stroke-width="2" stroke-miterlimit="10" d="M744.761,127.134h-5.741
			c2.243-0.755,3.837-2.644,3.837-4.85c0-2.888-2.694-5.215-6.023-5.215s-6.037,2.327-6.037,5.215c0,2.205,1.594,4.094,3.837,4.85
			h-5.727c-2.934,0-6.108,2.754-6.108,5.276v17.522c0,1.267,1.185,2.291,2.652,2.291s2.652-1.024,2.652-2.291v-14.402h1.227v39.101
			c0,1.657,1.552,3.01,3.47,3.01s3.484-1.34,3.484-3.01v-22.7h1.128v22.688c0,1.657,1.552,3.01,3.484,3.01
			c1.918,0,3.47-1.34,3.47-3.01v-39.089h1.227v14.402c0,1.267,1.185,2.291,2.652,2.291s2.652-1.024,2.652-2.291V132.41
			C750.855,129.888,747.681,127.134,744.761,127.134z"/>
		<path fill="#FFFFFF" stroke="#C1272D" stroke-width="2" stroke-miterlimit="10" d="M780.523,127.134h-5.741
			c2.243-0.755,3.837-2.644,3.837-4.85c0-2.888-2.694-5.215-6.023-5.215c-3.329,0-6.037,2.327-6.037,5.215
			c0,2.205,1.594,4.094,3.837,4.85h-5.727c-2.934,0-6.108,2.754-6.108,5.276v17.522c0,1.267,1.185,2.291,2.652,2.291
			c1.467,0,2.652-1.024,2.652-2.291v-14.402h1.227v39.101c0,1.657,1.552,3.01,3.47,3.01s3.484-1.34,3.484-3.01v-22.7h1.128v22.688
			c0,1.657,1.552,3.01,3.484,3.01c1.918,0,3.47-1.34,3.47-3.01v-39.089h1.227v14.402c0,1.267,1.185,2.291,2.652,2.291
			s2.652-1.024,2.652-2.291V132.41C786.616,129.888,783.443,127.134,780.523,127.134z"/>
		<path fill="#FFFFFF" stroke="#C1272D" stroke-width="2" stroke-miterlimit="10" d="M816.284,127.134h-5.741
			c2.243-0.755,3.837-2.644,3.837-4.85c0-2.888-2.694-5.215-6.023-5.215c-3.329,0-6.037,2.327-6.037,5.215
			c0,2.205,1.594,4.094,3.837,4.85h-5.727c-2.934,0-6.108,2.754-6.108,5.276v17.522c0,1.267,1.185,2.291,2.652,2.291
			c1.467,0,2.652-1.024,2.652-2.291v-14.402h1.227v39.101c0,1.657,1.552,3.01,3.47,3.01c1.918,0,3.484-1.34,3.484-3.01v-22.7h1.128
			v22.688c0,1.657,1.552,3.01,3.484,3.01c1.918,0,3.47-1.34,3.47-3.01v-39.089h1.227v14.402c0,1.267,1.185,2.291,2.652,2.291
			c1.467,0,2.652-1.024,2.652-2.291V132.41C822.378,129.888,819.204,127.134,816.284,127.134z"/>
		<path fill="#FFFFFF" stroke="#C1272D" stroke-width="2" stroke-miterlimit="10" d="M852.046,127.134h-5.741
			c2.243-0.755,3.837-2.644,3.837-4.85c0-2.888-2.694-5.215-6.023-5.215c-3.329,0-6.037,2.327-6.037,5.215
			c0,2.205,1.594,4.094,3.837,4.85h-5.727c-2.934,0-6.108,2.754-6.108,5.276v17.522c0,1.267,1.185,2.291,2.652,2.291
			s2.652-1.024,2.652-2.291v-14.402h1.227v39.101c0,1.657,1.552,3.01,3.47,3.01c1.918,0,3.484-1.34,3.484-3.01v-22.7h1.128v22.688
			c0,1.657,1.552,3.01,3.484,3.01c1.918,0,3.47-1.34,3.47-3.01v-39.089h1.227v14.402c0,1.267,1.185,2.291,2.652,2.291
			c1.467,0,2.652-1.024,2.652-2.291V132.41C858.14,129.888,854.966,127.134,852.046,127.134z"/>
		<path fill="#FFFFFF" stroke="#C1272D" stroke-width="2" stroke-miterlimit="10" d="M887.807,127.134h-5.741
			c2.243-0.755,3.837-2.644,3.837-4.85c0-2.888-2.694-5.215-6.023-5.215c-3.329,0-6.037,2.327-6.037,5.215
			c0,2.205,1.594,4.094,3.837,4.85h-5.727c-2.934,0-6.108,2.754-6.108,5.276v17.522c0,1.267,1.185,2.291,2.652,2.291
			s2.652-1.024,2.652-2.291v-14.402h1.227v39.101c0,1.657,1.552,3.01,3.47,3.01s3.484-1.34,3.484-3.01v-22.7h1.128v22.688
			c0,1.657,1.552,3.01,3.484,3.01c1.918,0,3.47-1.34,3.47-3.01v-39.089h1.227v14.402c0,1.267,1.185,2.291,2.652,2.291
			s2.652-1.024,2.652-2.291V132.41C893.901,129.888,890.727,127.134,887.807,127.134z"/>
		<path fill="#FFFFFF" stroke="#C1272D" stroke-width="2" stroke-miterlimit="10" d="M923.569,127.134h-5.741
			c2.243-0.755,3.837-2.644,3.837-4.85c0-2.888-2.694-5.215-6.023-5.215c-3.329,0-6.037,2.327-6.037,5.215
			c0,2.205,1.594,4.094,3.837,4.85h-5.727c-2.934,0-6.108,2.754-6.108,5.276v17.522c0,1.267,1.185,2.291,2.652,2.291
			c1.467,0,2.652-1.024,2.652-2.291v-14.402h1.227v39.101c0,1.657,1.552,3.01,3.47,3.01c1.918,0,3.484-1.34,3.484-3.01v-22.7h1.128
			v22.688c0,1.657,1.552,3.01,3.484,3.01c1.918,0,3.47-1.34,3.47-3.01v-39.089h1.227v14.402c0,1.267,1.185,2.291,2.652,2.291
			s2.652-1.024,2.652-2.291V132.41C929.663,129.888,926.489,127.134,923.569,127.134z"/>
		<path fill="#FFFFFF" stroke="#C1272D" stroke-width="2" stroke-miterlimit="10" d="M959.331,127.134h-5.741
			c2.243-0.755,3.837-2.644,3.837-4.85c0-2.888-2.694-5.215-6.023-5.215c-3.329,0-6.037,2.327-6.037,5.215
			c0,2.205,1.594,4.094,3.837,4.85h-5.727c-2.934,0-6.108,2.754-6.108,5.276v17.522c0,1.267,1.185,2.291,2.652,2.291
			c1.467,0,2.652-1.024,2.652-2.291v-14.402h1.227v39.101c0,1.657,1.552,3.01,3.47,3.01c1.918,0,3.484-1.34,3.484-3.01v-22.7h1.128
			v22.688c0,1.657,1.552,3.01,3.484,3.01c1.918,0,3.47-1.34,3.47-3.01v-39.089h1.227v14.402c0,1.267,1.185,2.291,2.652,2.291
			c1.467,0,2.652-1.024,2.652-2.291V132.41C965.424,129.888,962.251,127.134,959.331,127.134z"/>
		<path fill="#FFFFFF" stroke="#C1272D" stroke-width="2" stroke-miterlimit="10" d="M995.092,127.134h-5.741
			c2.243-0.755,3.837-2.644,3.837-4.85c0-2.888-2.694-5.215-6.023-5.215s-6.037,2.327-6.037,5.215c0,2.205,1.594,4.094,3.837,4.85
			h-5.727c-2.934,0-6.108,2.754-6.108,5.276v17.522c0,1.267,1.185,2.291,2.652,2.291s2.652-1.024,2.652-2.291v-14.402h1.227v39.101
			c0,1.657,1.552,3.01,3.47,3.01c1.918,0,3.484-1.34,3.484-3.01v-22.7h1.128v22.688c0,1.657,1.552,3.01,3.484,3.01
			c1.918,0,3.47-1.34,3.47-3.01v-39.089h1.227v14.402c0,1.267,1.185,2.291,2.652,2.291s2.652-1.024,2.652-2.291V132.41
			C1001.186,129.888,998.012,127.134,995.092,127.134z"/>
		<path fill="#FFFFFF" stroke="#C1272D" stroke-width="2" stroke-miterlimit="10" d="M1030.854,127.134h-5.741
			c2.243-0.755,3.837-2.644,3.837-4.85c0-2.888-2.694-5.215-6.023-5.215c-3.329,0-6.037,2.327-6.037,5.215
			c0,2.205,1.594,4.094,3.837,4.85h-5.727c-2.934,0-6.108,2.754-6.108,5.276v17.522c0,1.267,1.185,2.291,2.652,2.291
			s2.652-1.024,2.652-2.291v-14.402h1.227v39.101c0,1.657,1.552,3.01,3.47,3.01s3.484-1.34,3.484-3.01v-22.7h1.128v22.688
			c0,1.657,1.552,3.01,3.484,3.01c1.918,0,3.47-1.34,3.47-3.01v-39.089h1.227v14.402c0,1.267,1.185,2.291,2.652,2.291
			c1.467,0,2.652-1.024,2.652-2.291V132.41C1036.948,129.888,1033.774,127.134,1030.854,127.134z"/>
		<path fill="#FFFFFF" stroke="#C1272D" stroke-width="2" stroke-miterlimit="10" d="M1066.616,127.134h-5.741
			c2.243-0.755,3.837-2.644,3.837-4.85c0-2.888-2.694-5.215-6.023-5.215c-3.329,0-6.037,2.327-6.037,5.215
			c0,2.205,1.594,4.094,3.837,4.85h-5.727c-2.934,0-6.108,2.754-6.108,5.276v17.522c0,1.267,1.185,2.291,2.652,2.291
			c1.467,0,2.652-1.024,2.652-2.291v-14.402h1.227v39.101c0,1.657,1.552,3.01,3.47,3.01c1.918,0,3.484-1.34,3.484-3.01v-22.7h1.128
			v22.688c0,1.657,1.552,3.01,3.484,3.01c1.918,0,3.47-1.34,3.47-3.01v-39.089h1.227v14.402c0,1.267,1.185,2.291,2.652,2.291
			c1.467,0,2.652-1.024,2.652-2.291V132.41C1072.709,129.888,1069.536,127.134,1066.616,127.134z"/>
		<path fill="#FFFFFF" stroke="#C1272D" stroke-width="2" stroke-miterlimit="10" d="M31.329,197.438h-5.741
			c2.243-0.755,3.837-2.644,3.837-4.85c0-2.888-2.694-5.215-6.023-5.215s-6.037,2.327-6.037,5.215c0,2.205,1.594,4.094,3.837,4.85
			h-5.727c-2.934,0-6.108,2.754-6.108,5.276v17.522c0,1.267,1.185,2.291,2.652,2.291s2.652-1.024,2.652-2.291v-14.402h1.227v39.101
			c0,1.657,1.552,3.01,3.47,3.01s3.484-1.34,3.484-3.01v-22.7h1.128v22.688c0,1.657,1.552,3.01,3.484,3.01
			c1.918,0,3.47-1.34,3.47-3.01v-39.089h1.227v14.402c0,1.267,1.185,2.291,2.652,2.291c1.467,0,2.652-1.024,2.652-2.291v-17.522
			C37.423,200.192,34.249,197.438,31.329,197.438z"/>
		<path fill="#FFFFFF" stroke="#C1272D" stroke-width="2" stroke-miterlimit="10" d="M67.091,197.438H61.35
			c2.243-0.755,3.837-2.644,3.837-4.85c0-2.888-2.694-5.215-6.023-5.215s-6.037,2.327-6.037,5.215c0,2.205,1.594,4.094,3.837,4.85
			h-5.727c-2.934,0-6.108,2.754-6.108,5.276v17.522c0,1.267,1.185,2.291,2.652,2.291c1.467,0,2.652-1.024,2.652-2.291v-14.402h1.227
			v39.101c0,1.657,1.552,3.01,3.47,3.01c1.918,0,3.484-1.34,3.484-3.01v-22.7h1.128v22.688c0,1.657,1.552,3.01,3.484,3.01
			c1.918,0,3.47-1.34,3.47-3.01v-39.089h1.227v14.402c0,1.267,1.185,2.291,2.652,2.291s2.652-1.024,2.652-2.291v-17.522
			C73.184,200.192,70.011,197.438,67.091,197.438z"/>
		<path fill="#FFFFFF" stroke="#C1272D" stroke-width="2" stroke-miterlimit="10" d="M102.852,197.438h-5.741
			c2.243-0.755,3.837-2.644,3.837-4.85c0-2.888-2.694-5.215-6.023-5.215c-3.329,0-6.037,2.327-6.037,5.215
			c0,2.205,1.594,4.094,3.837,4.85h-5.727c-2.934,0-6.108,2.754-6.108,5.276v17.522c0,1.267,1.185,2.291,2.652,2.291
			c1.467,0,2.652-1.024,2.652-2.291v-14.402h1.227v39.101c0,1.657,1.552,3.01,3.47,3.01s3.484-1.34,3.484-3.01v-22.7h1.128v22.688
			c0,1.657,1.552,3.01,3.484,3.01c1.918,0,3.47-1.34,3.47-3.01v-39.089h1.227v14.402c0,1.267,1.185,2.291,2.652,2.291
			s2.652-1.024,2.652-2.291v-17.522C108.946,200.192,105.772,197.438,102.852,197.438z"/>
		<path fill="#FFFFFF" stroke="#C1272D" stroke-width="2" stroke-miterlimit="10" d="M138.614,197.438h-5.741
			c2.243-0.755,3.837-2.644,3.837-4.85c0-2.888-2.694-5.215-6.023-5.215c-3.329,0-6.037,2.327-6.037,5.215
			c0,2.205,1.594,4.094,3.837,4.85h-5.727c-2.934,0-6.108,2.754-6.108,5.276v17.522c0,1.267,1.185,2.291,2.652,2.291
			c1.467,0,2.652-1.024,2.652-2.291v-14.402h1.227v39.101c0,1.657,1.552,3.01,3.47,3.01s3.484-1.34,3.484-3.01v-22.7h1.128v22.688
			c0,1.657,1.552,3.01,3.484,3.01c1.918,0,3.47-1.34,3.47-3.01v-39.089h1.227v14.402c0,1.267,1.185,2.291,2.652,2.291
			s2.652-1.024,2.652-2.291v-17.522C144.708,200.192,141.534,197.438,138.614,197.438z"/>
		<path fill="#FFFFFF" stroke="#C1272D" stroke-width="2" stroke-miterlimit="10" d="M174.376,197.438h-5.741
			c2.243-0.755,3.837-2.644,3.837-4.85c0-2.888-2.694-5.215-6.023-5.215s-6.037,2.327-6.037,5.215c0,2.205,1.594,4.094,3.837,4.85
			h-5.727c-2.934,0-6.108,2.754-6.108,5.276v17.522c0,1.267,1.185,2.291,2.652,2.291s2.652-1.024,2.652-2.291v-14.402h1.227v39.101
			c0,1.657,1.552,3.01,3.47,3.01c1.918,0,3.484-1.34,3.484-3.01v-22.7h1.128v22.688c0,1.657,1.552,3.01,3.484,3.01
			c1.918,0,3.47-1.34,3.47-3.01v-39.089h1.227v14.402c0,1.267,1.185,2.291,2.652,2.291s2.652-1.024,2.652-2.291v-17.522
			C180.469,200.192,177.295,197.438,174.376,197.438z"/>
		<path fill="#FFFFFF" stroke="#C1272D" stroke-width="2" stroke-miterlimit="10" d="M210.137,197.438h-5.741
			c2.243-0.755,3.837-2.644,3.837-4.85c0-2.888-2.694-5.215-6.023-5.215s-6.037,2.327-6.037,5.215c0,2.205,1.594,4.094,3.837,4.85
			h-5.727c-2.934,0-6.108,2.754-6.108,5.276v17.522c0,1.267,1.185,2.291,2.652,2.291s2.652-1.024,2.652-2.291v-14.402h1.227v39.101
			c0,1.657,1.552,3.01,3.47,3.01c1.918,0,3.484-1.34,3.484-3.01v-22.7h1.128v22.688c0,1.657,1.552,3.01,3.484,3.01
			c1.918,0,3.47-1.34,3.47-3.01v-39.089h1.227v14.402c0,1.267,1.185,2.291,2.652,2.291s2.652-1.024,2.652-2.291v-17.522
			C216.231,200.192,213.057,197.438,210.137,197.438z"/>
		<path fill="#FFFFFF" stroke="#C1272D" stroke-width="2" stroke-miterlimit="10" d="M245.899,197.438h-5.741
			c2.243-0.755,3.837-2.644,3.837-4.85c0-2.888-2.694-5.215-6.023-5.215s-6.037,2.327-6.037,5.215c0,2.205,1.594,4.094,3.837,4.85
			h-5.727c-2.934,0-6.108,2.754-6.108,5.276v17.522c0,1.267,1.185,2.291,2.652,2.291s2.652-1.024,2.652-2.291v-14.402h1.227v39.101
			c0,1.657,1.552,3.01,3.47,3.01c1.918,0,3.484-1.34,3.484-3.01v-22.7h1.128v22.688c0,1.657,1.552,3.01,3.484,3.01
			c1.918,0,3.47-1.34,3.47-3.01v-39.089h1.227v14.402c0,1.267,1.185,2.291,2.652,2.291s2.652-1.024,2.652-2.291v-17.522
			C251.993,200.192,248.819,197.438,245.899,197.438z"/>
		<path fill="#FFFFFF" stroke="#C1272D" stroke-width="2" stroke-miterlimit="10" d="M281.661,197.438h-5.741
			c2.243-0.755,3.837-2.644,3.837-4.85c0-2.888-2.694-5.215-6.023-5.215s-6.037,2.327-6.037,5.215c0,2.205,1.594,4.094,3.837,4.85
			h-5.727c-2.934,0-6.108,2.754-6.108,5.276v17.522c0,1.267,1.185,2.291,2.652,2.291s2.652-1.024,2.652-2.291v-14.402h1.227v39.101
			c0,1.657,1.552,3.01,3.47,3.01c1.918,0,3.484-1.34,3.484-3.01v-22.7h1.128v22.688c0,1.657,1.552,3.01,3.484,3.01
			c1.918,0,3.47-1.34,3.47-3.01v-39.089h1.227v14.402c0,1.267,1.185,2.291,2.652,2.291c1.467,0,2.652-1.024,2.652-2.291v-17.522
			C287.754,200.192,284.58,197.438,281.661,197.438z"/>
		<path fill="#FFFFFF" stroke="#C1272D" stroke-width="2" stroke-miterlimit="10" d="M317.422,197.438h-5.741
			c2.243-0.755,3.837-2.644,3.837-4.85c0-2.888-2.694-5.215-6.023-5.215c-3.329,0-6.037,2.327-6.037,5.215
			c0,2.205,1.594,4.094,3.837,4.85h-5.727c-2.934,0-6.108,2.754-6.108,5.276v17.522c0,1.267,1.185,2.291,2.652,2.291
			c1.467,0,2.652-1.024,2.652-2.291v-14.402h1.227v39.101c0,1.657,1.552,3.01,3.47,3.01c1.918,0,3.484-1.34,3.484-3.01v-22.7h1.128
			v22.688c0,1.657,1.552,3.01,3.484,3.01c1.918,0,3.47-1.34,3.47-3.01v-39.089h1.227v14.402c0,1.267,1.185,2.291,2.652,2.291
			c1.467,0,2.652-1.024,2.652-2.291v-17.522C323.516,200.192,320.342,197.438,317.422,197.438z"/>
		<path fill="#FFFFFF" stroke="#C1272D" stroke-width="2" stroke-miterlimit="10" d="M353.184,197.438h-5.741
			c2.243-0.755,3.837-2.644,3.837-4.85c0-2.888-2.694-5.215-6.023-5.215s-6.037,2.327-6.037,5.215c0,2.205,1.594,4.094,3.837,4.85
			h-5.727c-2.934,0-6.108,2.754-6.108,5.276v17.522c0,1.267,1.185,2.291,2.652,2.291c1.467,0,2.652-1.024,2.652-2.291v-14.402h1.227
			v39.101c0,1.657,1.552,3.01,3.47,3.01c1.918,0,3.484-1.34,3.484-3.01v-22.7h1.128v22.688c0,1.657,1.552,3.01,3.484,3.01
			c1.918,0,3.47-1.34,3.47-3.01v-39.089h1.227v14.402c0,1.267,1.185,2.291,2.652,2.291c1.467,0,2.652-1.024,2.652-2.291v-17.522
			C359.277,200.192,356.104,197.438,353.184,197.438z"/>
		<path fill="#FFFFFF" stroke="#C1272D" stroke-width="2" stroke-miterlimit="10" d="M388.945,197.438h-5.741
			c2.243-0.755,3.837-2.644,3.837-4.85c0-2.888-2.694-5.215-6.023-5.215s-6.037,2.327-6.037,5.215c0,2.205,1.594,4.094,3.837,4.85
			h-5.727c-2.934,0-6.108,2.754-6.108,5.276v17.522c0,1.267,1.185,2.291,2.652,2.291c1.467,0,2.652-1.024,2.652-2.291v-14.402h1.227
			v39.101c0,1.657,1.552,3.01,3.47,3.01c1.918,0,3.484-1.34,3.484-3.01v-22.7h1.128v22.688c0,1.657,1.552,3.01,3.484,3.01
			c1.918,0,3.47-1.34,3.47-3.01v-39.089h1.227v14.402c0,1.267,1.185,2.291,2.652,2.291c1.467,0,2.652-1.024,2.652-2.291v-17.522
			C395.039,200.192,391.865,197.438,388.945,197.438z"/>
		<path fill="#FFFFFF" stroke="#C1272D" stroke-width="2" stroke-miterlimit="10" d="M424.707,197.438h-5.741
			c2.243-0.755,3.837-2.644,3.837-4.85c0-2.888-2.694-5.215-6.023-5.215s-6.037,2.327-6.037,5.215c0,2.205,1.594,4.094,3.837,4.85
			h-5.727c-2.934,0-6.108,2.754-6.108,5.276v17.522c0,1.267,1.185,2.291,2.652,2.291c1.467,0,2.652-1.024,2.652-2.291v-14.402h1.227
			v39.101c0,1.657,1.552,3.01,3.47,3.01s3.484-1.34,3.484-3.01v-22.7h1.128v22.688c0,1.657,1.552,3.01,3.484,3.01
			c1.918,0,3.47-1.34,3.47-3.01v-39.089h1.227v14.402c0,1.267,1.185,2.291,2.652,2.291c1.467,0,2.652-1.024,2.652-2.291v-17.522
			C430.801,200.192,427.627,197.438,424.707,197.438z"/>
		<path fill="#FFFFFF" stroke="#C1272D" stroke-width="2" stroke-miterlimit="10" d="M460.469,197.438h-5.741
			c2.243-0.755,3.837-2.644,3.837-4.85c0-2.888-2.694-5.215-6.023-5.215s-6.037,2.327-6.037,5.215c0,2.205,1.594,4.094,3.837,4.85
			h-5.727c-2.934,0-6.108,2.754-6.108,5.276v17.522c0,1.267,1.185,2.291,2.652,2.291c1.467,0,2.652-1.024,2.652-2.291v-14.402h1.227
			v39.101c0,1.657,1.552,3.01,3.47,3.01c1.918,0,3.484-1.34,3.484-3.01v-22.7h1.128v22.688c0,1.657,1.552,3.01,3.484,3.01
			c1.918,0,3.47-1.34,3.47-3.01v-39.089h1.227v14.402c0,1.267,1.185,2.291,2.652,2.291c1.467,0,2.652-1.024,2.652-2.291v-17.522
			C466.562,200.192,463.389,197.438,460.469,197.438z"/>
		<path fill="#FFFFFF" stroke="#C1272D" stroke-width="2" stroke-miterlimit="10" d="M496.23,197.438h-5.741
			c2.243-0.755,3.837-2.644,3.837-4.85c0-2.888-2.694-5.215-6.023-5.215s-6.037,2.327-6.037,5.215c0,2.205,1.594,4.094,3.837,4.85
			h-5.727c-2.934,0-6.108,2.754-6.108,5.276v17.522c0,1.267,1.185,2.291,2.652,2.291c1.467,0,2.652-1.024,2.652-2.291v-14.402h1.227
			v39.101c0,1.657,1.552,3.01,3.47,3.01s3.484-1.34,3.484-3.01v-22.7h1.128v22.688c0,1.657,1.552,3.01,3.484,3.01
			c1.918,0,3.47-1.34,3.47-3.01v-39.089h1.227v14.402c0,1.267,1.185,2.291,2.652,2.291s2.652-1.024,2.652-2.291v-17.522
			C502.324,200.192,499.15,197.438,496.23,197.438z"/>
		<path fill="#FFFFFF" stroke="#C1272D" stroke-width="2" stroke-miterlimit="10" d="M531.992,197.438h-5.741
			c2.243-0.755,3.837-2.644,3.837-4.85c0-2.888-2.694-5.215-6.023-5.215c-3.329,0-6.037,2.327-6.037,5.215
			c0,2.205,1.594,4.094,3.837,4.85h-5.727c-2.934,0-6.108,2.754-6.108,5.276v17.522c0,1.267,1.185,2.291,2.652,2.291
			c1.467,0,2.652-1.024,2.652-2.291v-14.402h1.227v39.101c0,1.657,1.552,3.01,3.47,3.01c1.918,0,3.484-1.34,3.484-3.01v-22.7h1.128
			v22.688c0,1.657,1.552,3.01,3.484,3.01c1.918,0,3.47-1.34,3.47-3.01v-39.089h1.227v14.402c0,1.267,1.185,2.291,2.652,2.291
			s2.652-1.024,2.652-2.291v-17.522C538.086,200.192,534.912,197.438,531.992,197.438z"/>
		<path fill="#FFFFFF" stroke="#C1272D" stroke-width="2" stroke-miterlimit="10" d="M567.754,197.438h-5.741
			c2.243-0.755,3.837-2.644,3.837-4.85c0-2.888-2.694-5.215-6.023-5.215c-3.329,0-6.037,2.327-6.037,5.215
			c0,2.205,1.594,4.094,3.837,4.85h-5.727c-2.934,0-6.108,2.754-6.108,5.276v17.522c0,1.267,1.185,2.291,2.652,2.291
			c1.467,0,2.652-1.024,2.652-2.291v-14.402h1.227v39.101c0,1.657,1.552,3.01,3.47,3.01c1.918,0,3.484-1.34,3.484-3.01v-22.7h1.128
			v22.688c0,1.657,1.552,3.01,3.484,3.01c1.918,0,3.47-1.34,3.47-3.01v-39.089h1.227v14.402c0,1.267,1.185,2.291,2.652,2.291
			c1.467,0,2.652-1.024,2.652-2.291v-17.522C573.847,200.192,570.674,197.438,567.754,197.438z"/>
		<path fill="#FFFFFF" stroke="#C1272D" stroke-width="2" stroke-miterlimit="10" d="M603.515,197.438h-5.741
			c2.243-0.755,3.837-2.644,3.837-4.85c0-2.888-2.694-5.215-6.023-5.215s-6.037,2.327-6.037,5.215c0,2.205,1.594,4.094,3.837,4.85
			h-5.727c-2.934,0-6.108,2.754-6.108,5.276v17.522c0,1.267,1.185,2.291,2.652,2.291s2.652-1.024,2.652-2.291v-14.402h1.227v39.101
			c0,1.657,1.552,3.01,3.47,3.01c1.918,0,3.484-1.34,3.484-3.01v-22.7h1.128v22.688c0,1.657,1.552,3.01,3.484,3.01
			c1.918,0,3.47-1.34,3.47-3.01v-39.089h1.227v14.402c0,1.267,1.185,2.291,2.652,2.291s2.652-1.024,2.652-2.291v-17.522
			C609.609,200.192,606.435,197.438,603.515,197.438z"/>
		<path fill="#FFFFFF" stroke="#C1272D" stroke-width="2" stroke-miterlimit="10" d="M639.277,197.438h-5.741
			c2.243-0.755,3.837-2.644,3.837-4.85c0-2.888-2.694-5.215-6.023-5.215c-3.329,0-6.037,2.327-6.037,5.215
			c0,2.205,1.594,4.094,3.837,4.85h-5.727c-2.934,0-6.108,2.754-6.108,5.276v17.522c0,1.267,1.185,2.291,2.652,2.291
			s2.652-1.024,2.652-2.291v-14.402h1.227v39.101c0,1.657,1.552,3.01,3.47,3.01s3.484-1.34,3.484-3.01v-22.7h1.128v22.688
			c0,1.657,1.552,3.01,3.484,3.01c1.918,0,3.47-1.34,3.47-3.01v-39.089h1.227v14.402c0,1.267,1.185,2.291,2.652,2.291
			s2.652-1.024,2.652-2.291v-17.522C645.371,200.192,642.197,197.438,639.277,197.438z"/>
		<path fill="#FFFFFF" stroke="#C1272D" stroke-width="2" stroke-miterlimit="10" d="M675.039,197.438h-5.741
			c2.243-0.755,3.837-2.644,3.837-4.85c0-2.888-2.694-5.215-6.023-5.215c-3.329,0-6.037,2.327-6.037,5.215
			c0,2.205,1.594,4.094,3.837,4.85h-5.727c-2.934,0-6.108,2.754-6.108,5.276v17.522c0,1.267,1.185,2.291,2.652,2.291
			c1.467,0,2.652-1.024,2.652-2.291v-14.402h1.227v39.101c0,1.657,1.552,3.01,3.47,3.01c1.918,0,3.484-1.34,3.484-3.01v-22.7h1.128
			v22.688c0,1.657,1.552,3.01,3.484,3.01c1.918,0,3.47-1.34,3.47-3.01v-39.089h1.227v14.402c0,1.267,1.185,2.291,2.652,2.291
			c1.467,0,2.652-1.024,2.652-2.291v-17.522C681.132,200.192,677.958,197.438,675.039,197.438z"/>
		<path fill="#FFFFFF" stroke="#C1272D" stroke-width="2" stroke-miterlimit="10" d="M710.8,197.438h-5.741
			c2.243-0.755,3.837-2.644,3.837-4.85c0-2.888-2.694-5.215-6.023-5.215c-3.329,0-6.037,2.327-6.037,5.215
			c0,2.205,1.594,4.094,3.837,4.85h-5.727c-2.934,0-6.108,2.754-6.108,5.276v17.522c0,1.267,1.185,2.291,2.652,2.291
			s2.652-1.024,2.652-2.291v-14.402h1.227v39.101c0,1.657,1.552,3.01,3.47,3.01c1.918,0,3.484-1.34,3.484-3.01v-22.7h1.128v22.688
			c0,1.657,1.552,3.01,3.484,3.01c1.918,0,3.47-1.34,3.47-3.01v-39.089h1.227v14.402c0,1.267,1.185,2.291,2.652,2.291
			c1.467,0,2.652-1.024,2.652-2.291v-17.522C716.894,200.192,713.72,197.438,710.8,197.438z"/>
		<path fill="#FFFFFF" stroke="#C1272D" stroke-width="2" stroke-miterlimit="10" d="M746.562,197.438h-5.741
			c2.243-0.755,3.837-2.644,3.837-4.85c0-2.888-2.694-5.215-6.023-5.215s-6.037,2.327-6.037,5.215c0,2.205,1.594,4.094,3.837,4.85
			h-5.727c-2.934,0-6.108,2.754-6.108,5.276v17.522c0,1.267,1.185,2.291,2.652,2.291s2.652-1.024,2.652-2.291v-14.402h1.227v39.101
			c0,1.657,1.552,3.01,3.47,3.01s3.484-1.34,3.484-3.01v-22.7h1.128v22.688c0,1.657,1.552,3.01,3.484,3.01
			c1.918,0,3.47-1.34,3.47-3.01v-39.089h1.227v14.402c0,1.267,1.185,2.291,2.652,2.291s2.652-1.024,2.652-2.291v-17.522
			C752.656,200.192,749.482,197.438,746.562,197.438z"/>
		<path fill="#FFFFFF" stroke="#C1272D" stroke-width="2" stroke-miterlimit="10" d="M782.323,197.438h-5.741
			c2.243-0.755,3.837-2.644,3.837-4.85c0-2.888-2.694-5.215-6.023-5.215c-3.329,0-6.037,2.327-6.037,5.215
			c0,2.205,1.594,4.094,3.837,4.85h-5.727c-2.934,0-6.108,2.754-6.108,5.276v17.522c0,1.267,1.185,2.291,2.652,2.291
			s2.652-1.024,2.652-2.291v-14.402h1.227v39.101c0,1.657,1.552,3.01,3.47,3.01s3.484-1.34,3.484-3.01v-22.7h1.128v22.688
			c0,1.657,1.552,3.01,3.484,3.01c1.918,0,3.47-1.34,3.47-3.01v-39.089h1.227v14.402c0,1.267,1.185,2.291,2.652,2.291
			s2.652-1.024,2.652-2.291v-17.522C788.417,200.192,785.243,197.438,782.323,197.438z"/>
		<path fill="#FFFFFF" stroke="#C1272D" stroke-width="2" stroke-miterlimit="10" d="M818.085,197.438h-5.741
			c2.243-0.755,3.837-2.644,3.837-4.85c0-2.888-2.694-5.215-6.023-5.215c-3.329,0-6.037,2.327-6.037,5.215
			c0,2.205,1.594,4.094,3.837,4.85h-5.727c-2.934,0-6.108,2.754-6.108,5.276v17.522c0,1.267,1.185,2.291,2.652,2.291
			c1.467,0,2.652-1.024,2.652-2.291v-14.402h1.227v39.101c0,1.657,1.552,3.01,3.47,3.01c1.918,0,3.484-1.34,3.484-3.01v-22.7h1.128
			v22.688c0,1.657,1.552,3.01,3.484,3.01c1.918,0,3.47-1.34,3.47-3.01v-39.089h1.227v14.402c0,1.267,1.185,2.291,2.652,2.291
			c1.467,0,2.652-1.024,2.652-2.291v-17.522C824.179,200.192,821.005,197.438,818.085,197.438z"/>
		<path fill="#FFFFFF" stroke="#C1272D" stroke-width="2" stroke-miterlimit="10" d="M853.847,197.438h-5.741
			c2.243-0.755,3.837-2.644,3.837-4.85c0-2.888-2.694-5.215-6.023-5.215c-3.329,0-6.037,2.327-6.037,5.215
			c0,2.205,1.594,4.094,3.837,4.85h-5.727c-2.934,0-6.108,2.754-6.108,5.276v17.522c0,1.267,1.185,2.291,2.652,2.291
			s2.652-1.024,2.652-2.291v-14.402h1.227v39.101c0,1.657,1.552,3.01,3.47,3.01c1.918,0,3.484-1.34,3.484-3.01v-22.7h1.128v22.688
			c0,1.657,1.552,3.01,3.484,3.01c1.918,0,3.47-1.34,3.47-3.01v-39.089h1.227v14.402c0,1.267,1.185,2.291,2.652,2.291
			c1.467,0,2.652-1.024,2.652-2.291v-17.522C859.94,200.192,856.767,197.438,853.847,197.438z"/>
		<path fill="#FFFFFF" stroke="#C1272D" stroke-width="2" stroke-miterlimit="10" d="M889.608,197.438h-5.741
			c2.243-0.755,3.837-2.644,3.837-4.85c0-2.888-2.694-5.215-6.023-5.215c-3.329,0-6.037,2.327-6.037,5.215
			c0,2.205,1.594,4.094,3.837,4.85h-5.727c-2.934,0-6.108,2.754-6.108,5.276v17.522c0,1.267,1.185,2.291,2.652,2.291
			s2.652-1.024,2.652-2.291v-14.402h1.227v39.101c0,1.657,1.552,3.01,3.47,3.01s3.484-1.34,3.484-3.01v-22.7h1.128v22.688
			c0,1.657,1.552,3.01,3.484,3.01c1.918,0,3.47-1.34,3.47-3.01v-39.089h1.227v14.402c0,1.267,1.185,2.291,2.652,2.291
			s2.652-1.024,2.652-2.291v-17.522C895.702,200.192,892.528,197.438,889.608,197.438z"/>
		<path fill="#FFFFFF" stroke="#C1272D" stroke-width="2" stroke-miterlimit="10" d="M925.37,197.438h-5.741
			c2.243-0.755,3.837-2.644,3.837-4.85c0-2.888-2.694-5.215-6.023-5.215c-3.329,0-6.037,2.327-6.037,5.215
			c0,2.205,1.594,4.094,3.837,4.85h-5.727c-2.934,0-6.108,2.754-6.108,5.276v17.522c0,1.267,1.185,2.291,2.652,2.291
			c1.467,0,2.652-1.024,2.652-2.291v-14.402h1.227v39.101c0,1.657,1.552,3.01,3.47,3.01c1.918,0,3.484-1.34,3.484-3.01v-22.7h1.128
			v22.688c0,1.657,1.552,3.01,3.484,3.01c1.918,0,3.47-1.34,3.47-3.01v-39.089h1.227v14.402c0,1.267,1.185,2.291,2.652,2.291
			s2.652-1.024,2.652-2.291v-17.522C931.464,200.192,928.29,197.438,925.37,197.438z"/>
		<path fill="#FFFFFF" stroke="#C1272D" stroke-width="2" stroke-miterlimit="10" d="M961.132,197.438h-5.741
			c2.243-0.755,3.837-2.644,3.837-4.85c0-2.888-2.694-5.215-6.023-5.215c-3.329,0-6.037,2.327-6.037,5.215
			c0,2.205,1.594,4.094,3.837,4.85h-5.727c-2.934,0-6.108,2.754-6.108,5.276v17.522c0,1.267,1.185,2.291,2.652,2.291
			c1.467,0,2.652-1.024,2.652-2.291v-14.402h1.227v39.101c0,1.657,1.552,3.01,3.47,3.01c1.918,0,3.484-1.34,3.484-3.01v-22.7h1.128
			v22.688c0,1.657,1.552,3.01,3.484,3.01c1.918,0,3.47-1.34,3.47-3.01v-39.089h1.227v14.402c0,1.267,1.185,2.291,2.652,2.291
			c1.467,0,2.652-1.024,2.652-2.291v-17.522C967.225,200.192,964.052,197.438,961.132,197.438z"/>
		<path fill="#FFFFFF" stroke="#C1272D" stroke-width="2" stroke-miterlimit="10" d="M996.893,197.438h-5.741
			c2.243-0.755,3.837-2.644,3.837-4.85c0-2.888-2.694-5.215-6.023-5.215s-6.037,2.327-6.037,5.215c0,2.205,1.594,4.094,3.837,4.85
			h-5.727c-2.934,0-6.108,2.754-6.108,5.276v17.522c0,1.267,1.185,2.291,2.652,2.291s2.652-1.024,2.652-2.291v-14.402h1.227v39.101
			c0,1.657,1.552,3.01,3.47,3.01c1.918,0,3.484-1.34,3.484-3.01v-22.7h1.128v22.688c0,1.657,1.552,3.01,3.484,3.01
			c1.918,0,3.47-1.34,3.47-3.01v-39.089h1.227v14.402c0,1.267,1.185,2.291,2.652,2.291s2.652-1.024,2.652-2.291v-17.522
			C1002.987,200.192,999.813,197.438,996.893,197.438z"/>
		<path fill="#FFFFFF" stroke="#C1272D" stroke-width="2" stroke-miterlimit="10" d="M1032.655,197.438h-5.741
			c2.243-0.755,3.837-2.644,3.837-4.85c0-2.888-2.694-5.215-6.023-5.215c-3.329,0-6.037,2.327-6.037,5.215
			c0,2.205,1.594,4.094,3.837,4.85h-5.727c-2.934,0-6.108,2.754-6.108,5.276v17.522c0,1.267,1.185,2.291,2.652,2.291
			s2.652-1.024,2.652-2.291v-14.402h1.227v39.101c0,1.657,1.552,3.01,3.47,3.01s3.484-1.34,3.484-3.01v-22.7h1.128v22.688
			c0,1.657,1.552,3.01,3.484,3.01c1.918,0,3.47-1.34,3.47-3.01v-39.089h1.227v14.402c0,1.267,1.185,2.291,2.652,2.291
			c1.467,0,2.652-1.024,2.652-2.291v-17.522C1038.749,200.192,1035.575,197.438,1032.655,197.438z"/>
		<path fill="#FFFFFF" stroke="#C1272D" stroke-width="2" stroke-miterlimit="10" d="M1068.417,197.438h-5.741
			c2.243-0.755,3.837-2.644,3.837-4.85c0-2.888-2.694-5.215-6.023-5.215c-3.329,0-6.037,2.327-6.037,5.215
			c0,2.205,1.594,4.094,3.837,4.85h-5.727c-2.934,0-6.108,2.754-6.108,5.276v17.522c0,1.267,1.185,2.291,2.652,2.291
			c1.467,0,2.652-1.024,2.652-2.291v-14.402h1.227v39.101c0,1.657,1.552,3.01,3.47,3.01c1.918,0,3.484-1.34,3.484-3.01v-22.7h1.128
			v22.688c0,1.657,1.552,3.01,3.484,3.01c1.918,0,3.47-1.34,3.47-3.01v-39.089h1.227v14.402c0,1.267,1.185,2.291,2.652,2.291
			c1.467,0,2.652-1.024,2.652-2.291v-17.522C1074.51,200.192,1071.337,197.438,1068.417,197.438z"/>
		<path fill="#FFFFFF" stroke="#C1272D" stroke-width="2" stroke-miterlimit="10" d="M31.329,273.367h-5.741
			c2.243-0.755,3.837-2.644,3.837-4.85c0-2.888-2.694-5.215-6.023-5.215s-6.037,2.327-6.037,5.215c0,2.205,1.594,4.094,3.837,4.85
			h-5.727c-2.934,0-6.108,2.754-6.108,5.276v17.522c0,1.267,1.185,2.291,2.652,2.291s2.652-1.024,2.652-2.291v-14.402h1.227v39.101
			c0,1.657,1.552,3.01,3.47,3.01s3.484-1.34,3.484-3.01v-22.7h1.128v22.688c0,1.657,1.552,3.01,3.484,3.01
			c1.918,0,3.47-1.34,3.47-3.01v-39.089h1.227v14.402c0,1.267,1.185,2.291,2.652,2.291c1.467,0,2.652-1.024,2.652-2.291v-17.522
			C37.423,276.121,34.249,273.367,31.329,273.367z"/>
		<path fill="#FFFFFF" stroke="#C1272D" stroke-width="2" stroke-miterlimit="10" d="M67.091,273.367H61.35
			c2.243-0.755,3.837-2.644,3.837-4.85c0-2.888-2.694-5.215-6.023-5.215s-6.037,2.327-6.037,5.215c0,2.205,1.594,4.094,3.837,4.85
			h-5.727c-2.934,0-6.108,2.754-6.108,5.276v17.522c0,1.267,1.185,2.291,2.652,2.291c1.467,0,2.652-1.024,2.652-2.291v-14.402h1.227
			v39.101c0,1.657,1.552,3.01,3.47,3.01c1.918,0,3.484-1.34,3.484-3.01v-22.7h1.128v22.688c0,1.657,1.552,3.01,3.484,3.01
			c1.918,0,3.47-1.34,3.47-3.01v-39.089h1.227v14.402c0,1.267,1.185,2.291,2.652,2.291s2.652-1.024,2.652-2.291v-17.522
			C73.184,276.121,70.011,273.367,67.091,273.367z"/>
		<path fill="#FFFFFF" stroke="#C1272D" stroke-width="2" stroke-miterlimit="10" d="M102.852,273.367h-5.741
			c2.243-0.755,3.837-2.644,3.837-4.85c0-2.888-2.694-5.215-6.023-5.215c-3.329,0-6.037,2.327-6.037,5.215
			c0,2.205,1.594,4.094,3.837,4.85h-5.727c-2.934,0-6.108,2.754-6.108,5.276v17.522c0,1.267,1.185,2.291,2.652,2.291
			c1.467,0,2.652-1.024,2.652-2.291v-14.402h1.227v39.101c0,1.657,1.552,3.01,3.47,3.01s3.484-1.34,3.484-3.01v-22.7h1.128v22.688
			c0,1.657,1.552,3.01,3.484,3.01c1.918,0,3.47-1.34,3.47-3.01v-39.089h1.227v14.402c0,1.267,1.185,2.291,2.652,2.291
			s2.652-1.024,2.652-2.291v-17.522C108.946,276.121,105.772,273.367,102.852,273.367z"/>
		<path fill="#FFFFFF" stroke="#C1272D" stroke-width="2" stroke-miterlimit="10" d="M138.614,273.367h-5.741
			c2.243-0.755,3.837-2.644,3.837-4.85c0-2.888-2.694-5.215-6.023-5.215c-3.329,0-6.037,2.327-6.037,5.215
			c0,2.205,1.594,4.094,3.837,4.85h-5.727c-2.934,0-6.108,2.754-6.108,5.276v17.522c0,1.267,1.185,2.291,2.652,2.291
			c1.467,0,2.652-1.024,2.652-2.291v-14.402h1.227v39.101c0,1.657,1.552,3.01,3.47,3.01s3.484-1.34,3.484-3.01v-22.7h1.128v22.688
			c0,1.657,1.552,3.01,3.484,3.01c1.918,0,3.47-1.34,3.47-3.01v-39.089h1.227v14.402c0,1.267,1.185,2.291,2.652,2.291
			s2.652-1.024,2.652-2.291v-17.522C144.708,276.121,141.534,273.367,138.614,273.367z"/>
		<path fill="#FFFFFF" stroke="#C1272D" stroke-width="2" stroke-miterlimit="10" d="M174.376,273.367h-5.741
			c2.243-0.755,3.837-2.644,3.837-4.85c0-2.888-2.694-5.215-6.023-5.215s-6.037,2.327-6.037,5.215c0,2.205,1.594,4.094,3.837,4.85
			h-5.727c-2.934,0-6.108,2.754-6.108,5.276v17.522c0,1.267,1.185,2.291,2.652,2.291s2.652-1.024,2.652-2.291v-14.402h1.227v39.101
			c0,1.657,1.552,3.01,3.47,3.01c1.918,0,3.484-1.34,3.484-3.01v-22.7h1.128v22.688c0,1.657,1.552,3.01,3.484,3.01
			c1.918,0,3.47-1.34,3.47-3.01v-39.089h1.227v14.402c0,1.267,1.185,2.291,2.652,2.291s2.652-1.024,2.652-2.291v-17.522
			C180.469,276.121,177.295,273.367,174.376,273.367z"/>
		<path fill="#FFFFFF" stroke="#C1272D" stroke-width="2" stroke-miterlimit="10" d="M210.137,273.367h-5.741
			c2.243-0.755,3.837-2.644,3.837-4.85c0-2.888-2.694-5.215-6.023-5.215s-6.037,2.327-6.037,5.215c0,2.205,1.594,4.094,3.837,4.85
			h-5.727c-2.934,0-6.108,2.754-6.108,5.276v17.522c0,1.267,1.185,2.291,2.652,2.291s2.652-1.024,2.652-2.291v-14.402h1.227v39.101
			c0,1.657,1.552,3.01,3.47,3.01c1.918,0,3.484-1.34,3.484-3.01v-22.7h1.128v22.688c0,1.657,1.552,3.01,3.484,3.01
			c1.918,0,3.47-1.34,3.47-3.01v-39.089h1.227v14.402c0,1.267,1.185,2.291,2.652,2.291s2.652-1.024,2.652-2.291v-17.522
			C216.231,276.121,213.057,273.367,210.137,273.367z"/>
		<path fill="#FFFFFF" stroke="#C1272D" stroke-width="2" stroke-miterlimit="10" d="M245.899,273.367h-5.741
			c2.243-0.755,3.837-2.644,3.837-4.85c0-2.888-2.694-5.215-6.023-5.215s-6.037,2.327-6.037,5.215c0,2.205,1.594,4.094,3.837,4.85
			h-5.727c-2.934,0-6.108,2.754-6.108,5.276v17.522c0,1.267,1.185,2.291,2.652,2.291s2.652-1.024,2.652-2.291v-14.402h1.227v39.101
			c0,1.657,1.552,3.01,3.47,3.01c1.918,0,3.484-1.34,3.484-3.01v-22.7h1.128v22.688c0,1.657,1.552,3.01,3.484,3.01
			c1.918,0,3.47-1.34,3.47-3.01v-39.089h1.227v14.402c0,1.267,1.185,2.291,2.652,2.291s2.652-1.024,2.652-2.291v-17.522
			C251.993,276.121,248.819,273.367,245.899,273.367z"/>
		<path fill="#FFFFFF" stroke="#C1272D" stroke-width="2" stroke-miterlimit="10" d="M281.661,273.367h-5.741
			c2.243-0.755,3.837-2.644,3.837-4.85c0-2.888-2.694-5.215-6.023-5.215s-6.037,2.327-6.037,5.215c0,2.205,1.594,4.094,3.837,4.85
			h-5.727c-2.934,0-6.108,2.754-6.108,5.276v17.522c0,1.267,1.185,2.291,2.652,2.291s2.652-1.024,2.652-2.291v-14.402h1.227v39.101
			c0,1.657,1.552,3.01,3.47,3.01c1.918,0,3.484-1.34,3.484-3.01v-22.7h1.128v22.688c0,1.657,1.552,3.01,3.484,3.01
			c1.918,0,3.47-1.34,3.47-3.01v-39.089h1.227v14.402c0,1.267,1.185,2.291,2.652,2.291c1.467,0,2.652-1.024,2.652-2.291v-17.522
			C287.754,276.121,284.58,273.367,281.661,273.367z"/>
		<path fill="#FFFFFF" stroke="#C1272D" stroke-width="2" stroke-miterlimit="10" d="M317.422,273.367h-5.741
			c2.243-0.755,3.837-2.644,3.837-4.85c0-2.888-2.694-5.215-6.023-5.215c-3.329,0-6.037,2.327-6.037,5.215
			c0,2.205,1.594,4.094,3.837,4.85h-5.727c-2.934,0-6.108,2.754-6.108,5.276v17.522c0,1.267,1.185,2.291,2.652,2.291
			c1.467,0,2.652-1.024,2.652-2.291v-14.402h1.227v39.101c0,1.657,1.552,3.01,3.47,3.01c1.918,0,3.484-1.34,3.484-3.01v-22.7h1.128
			v22.688c0,1.657,1.552,3.01,3.484,3.01c1.918,0,3.47-1.34,3.47-3.01v-39.089h1.227v14.402c0,1.267,1.185,2.291,2.652,2.291
			c1.467,0,2.652-1.024,2.652-2.291v-17.522C323.516,276.121,320.342,273.367,317.422,273.367z"/>
		<path fill="#FFFFFF" stroke="#C1272D" stroke-width="2" stroke-miterlimit="10" d="M353.184,273.367h-5.741
			c2.243-0.755,3.837-2.644,3.837-4.85c0-2.888-2.694-5.215-6.023-5.215s-6.037,2.327-6.037,5.215c0,2.205,1.594,4.094,3.837,4.85
			h-5.727c-2.934,0-6.108,2.754-6.108,5.276v17.522c0,1.267,1.185,2.291,2.652,2.291c1.467,0,2.652-1.024,2.652-2.291v-14.402h1.227
			v39.101c0,1.657,1.552,3.01,3.47,3.01c1.918,0,3.484-1.34,3.484-3.01v-22.7h1.128v22.688c0,1.657,1.552,3.01,3.484,3.01
			c1.918,0,3.47-1.34,3.47-3.01v-39.089h1.227v14.402c0,1.267,1.185,2.291,2.652,2.291c1.467,0,2.652-1.024,2.652-2.291v-17.522
			C359.277,276.121,356.104,273.367,353.184,273.367z"/>
		<path fill="#FFFFFF" stroke="#C1272D" stroke-width="2" stroke-miterlimit="10" d="M388.945,273.367h-5.741
			c2.243-0.755,3.837-2.644,3.837-4.85c0-2.888-2.694-5.215-6.023-5.215s-6.037,2.327-6.037,5.215c0,2.205,1.594,4.094,3.837,4.85
			h-5.727c-2.934,0-6.108,2.754-6.108,5.276v17.522c0,1.267,1.185,2.291,2.652,2.291c1.467,0,2.652-1.024,2.652-2.291v-14.402h1.227
			v39.101c0,1.657,1.552,3.01,3.47,3.01c1.918,0,3.484-1.34,3.484-3.01v-22.7h1.128v22.688c0,1.657,1.552,3.01,3.484,3.01
			c1.918,0,3.47-1.34,3.47-3.01v-39.089h1.227v14.402c0,1.267,1.185,2.291,2.652,2.291c1.467,0,2.652-1.024,2.652-2.291v-17.522
			C395.039,276.121,391.865,273.367,388.945,273.367z"/>
		<path fill="#FFFFFF" stroke="#C1272D" stroke-width="2" stroke-miterlimit="10" d="M424.707,273.367h-5.741
			c2.243-0.755,3.837-2.644,3.837-4.85c0-2.888-2.694-5.215-6.023-5.215s-6.037,2.327-6.037,5.215c0,2.205,1.594,4.094,3.837,4.85
			h-5.727c-2.934,0-6.108,2.754-6.108,5.276v17.522c0,1.267,1.185,2.291,2.652,2.291c1.467,0,2.652-1.024,2.652-2.291v-14.402h1.227
			v39.101c0,1.657,1.552,3.01,3.47,3.01s3.484-1.34,3.484-3.01v-22.7h1.128v22.688c0,1.657,1.552,3.01,3.484,3.01
			c1.918,0,3.47-1.34,3.47-3.01v-39.089h1.227v14.402c0,1.267,1.185,2.291,2.652,2.291c1.467,0,2.652-1.024,2.652-2.291v-17.522
			C430.801,276.121,427.627,273.367,424.707,273.367z"/>
		<path fill="#FFFFFF" stroke="#C1272D" stroke-width="2" stroke-miterlimit="10" d="M460.469,273.367h-5.741
			c2.243-0.755,3.837-2.644,3.837-4.85c0-2.888-2.694-5.215-6.023-5.215s-6.037,2.327-6.037,5.215c0,2.205,1.594,4.094,3.837,4.85
			h-5.727c-2.934,0-6.108,2.754-6.108,5.276v17.522c0,1.267,1.185,2.291,2.652,2.291c1.467,0,2.652-1.024,2.652-2.291v-14.402h1.227
			v39.101c0,1.657,1.552,3.01,3.47,3.01c1.918,0,3.484-1.34,3.484-3.01v-22.7h1.128v22.688c0,1.657,1.552,3.01,3.484,3.01
			c1.918,0,3.47-1.34,3.47-3.01v-39.089h1.227v14.402c0,1.267,1.185,2.291,2.652,2.291c1.467,0,2.652-1.024,2.652-2.291v-17.522
			C466.562,276.121,463.389,273.367,460.469,273.367z"/>
		<path fill="#FFFFFF" stroke="#C1272D" stroke-width="2" stroke-miterlimit="10" d="M496.23,273.367h-5.741
			c2.243-0.755,3.837-2.644,3.837-4.85c0-2.888-2.694-5.215-6.023-5.215s-6.037,2.327-6.037,5.215c0,2.205,1.594,4.094,3.837,4.85
			h-5.727c-2.934,0-6.108,2.754-6.108,5.276v17.522c0,1.267,1.185,2.291,2.652,2.291c1.467,0,2.652-1.024,2.652-2.291v-14.402h1.227
			v39.101c0,1.657,1.552,3.01,3.47,3.01s3.484-1.34,3.484-3.01v-22.7h1.128v22.688c0,1.657,1.552,3.01,3.484,3.01
			c1.918,0,3.47-1.34,3.47-3.01v-39.089h1.227v14.402c0,1.267,1.185,2.291,2.652,2.291s2.652-1.024,2.652-2.291v-17.522
			C502.324,276.121,499.15,273.367,496.23,273.367z"/>
		<path fill="#FFFFFF" stroke="#C1272D" stroke-width="2" stroke-miterlimit="10" d="M531.992,273.367h-5.741
			c2.243-0.755,3.837-2.644,3.837-4.85c0-2.888-2.694-5.215-6.023-5.215c-3.329,0-6.037,2.327-6.037,5.215
			c0,2.205,1.594,4.094,3.837,4.85h-5.727c-2.934,0-6.108,2.754-6.108,5.276v17.522c0,1.267,1.185,2.291,2.652,2.291
			c1.467,0,2.652-1.024,2.652-2.291v-14.402h1.227v39.101c0,1.657,1.552,3.01,3.47,3.01c1.918,0,3.484-1.34,3.484-3.01v-22.7h1.128
			v22.688c0,1.657,1.552,3.01,3.484,3.01c1.918,0,3.47-1.34,3.47-3.01v-39.089h1.227v14.402c0,1.267,1.185,2.291,2.652,2.291
			s2.652-1.024,2.652-2.291v-17.522C538.086,276.121,534.912,273.367,531.992,273.367z"/>
		<path fill="#FFFFFF" stroke="#C1272D" stroke-width="2" stroke-miterlimit="10" d="M567.754,273.367h-5.741
			c2.243-0.755,3.837-2.644,3.837-4.85c0-2.888-2.694-5.215-6.023-5.215c-3.329,0-6.037,2.327-6.037,5.215
			c0,2.205,1.594,4.094,3.837,4.85h-5.727c-2.934,0-6.108,2.754-6.108,5.276v17.522c0,1.267,1.185,2.291,2.652,2.291
			c1.467,0,2.652-1.024,2.652-2.291v-14.402h1.227v39.101c0,1.657,1.552,3.01,3.47,3.01c1.918,0,3.484-1.34,3.484-3.01v-22.7h1.128
			v22.688c0,1.657,1.552,3.01,3.484,3.01c1.918,0,3.47-1.34,3.47-3.01v-39.089h1.227v14.402c0,1.267,1.185,2.291,2.652,2.291
			c1.467,0,2.652-1.024,2.652-2.291v-17.522C573.847,276.121,570.674,273.367,567.754,273.367z"/>
		<path fill="#FFFFFF" stroke="#C1272D" stroke-width="2" stroke-miterlimit="10" d="M603.515,273.367h-5.741
			c2.243-0.755,3.837-2.644,3.837-4.85c0-2.888-2.694-5.215-6.023-5.215s-6.037,2.327-6.037,5.215c0,2.205,1.594,4.094,3.837,4.85
			h-5.727c-2.934,0-6.108,2.754-6.108,5.276v17.522c0,1.267,1.185,2.291,2.652,2.291s2.652-1.024,2.652-2.291v-14.402h1.227v39.101
			c0,1.657,1.552,3.01,3.47,3.01c1.918,0,3.484-1.34,3.484-3.01v-22.7h1.128v22.688c0,1.657,1.552,3.01,3.484,3.01
			c1.918,0,3.47-1.34,3.47-3.01v-39.089h1.227v14.402c0,1.267,1.185,2.291,2.652,2.291s2.652-1.024,2.652-2.291v-17.522
			C609.609,276.121,606.435,273.367,603.515,273.367z"/>
		<path fill="#FFFFFF" stroke="#C1272D" stroke-width="2" stroke-miterlimit="10" d="M639.277,273.367h-5.741
			c2.243-0.755,3.837-2.644,3.837-4.85c0-2.888-2.694-5.215-6.023-5.215c-3.329,0-6.037,2.327-6.037,5.215
			c0,2.205,1.594,4.094,3.837,4.85h-5.727c-2.934,0-6.108,2.754-6.108,5.276v17.522c0,1.267,1.185,2.291,2.652,2.291
			s2.652-1.024,2.652-2.291v-14.402h1.227v39.101c0,1.657,1.552,3.01,3.47,3.01s3.484-1.34,3.484-3.01v-22.7h1.128v22.688
			c0,1.657,1.552,3.01,3.484,3.01c1.918,0,3.47-1.34,3.47-3.01v-39.089h1.227v14.402c0,1.267,1.185,2.291,2.652,2.291
			s2.652-1.024,2.652-2.291v-17.522C645.371,276.121,642.197,273.367,639.277,273.367z"/>
		<path fill="#FFFFFF" stroke="#C1272D" stroke-width="2" stroke-miterlimit="10" d="M675.039,273.367h-5.741
			c2.243-0.755,3.837-2.644,3.837-4.85c0-2.888-2.694-5.215-6.023-5.215c-3.329,0-6.037,2.327-6.037,5.215
			c0,2.205,1.594,4.094,3.837,4.85h-5.727c-2.934,0-6.108,2.754-6.108,5.276v17.522c0,1.267,1.185,2.291,2.652,2.291
			c1.467,0,2.652-1.024,2.652-2.291v-14.402h1.227v39.101c0,1.657,1.552,3.01,3.47,3.01c1.918,0,3.484-1.34,3.484-3.01v-22.7h1.128
			v22.688c0,1.657,1.552,3.01,3.484,3.01c1.918,0,3.47-1.34,3.47-3.01v-39.089h1.227v14.402c0,1.267,1.185,2.291,2.652,2.291
			c1.467,0,2.652-1.024,2.652-2.291v-17.522C681.132,276.121,677.958,273.367,675.039,273.367z"/>
	</g>
	<g id="under20_00000135654470780069688750000004633335180543087549_">
		<path fill="#C1272D" stroke="#FFFFFF" stroke-miterlimit="10" d="M28.628,57.767h-5.741c2.243-0.755,3.837-2.644,3.837-4.85
			c0-2.888-2.694-5.215-6.023-5.215s-6.037,2.327-6.037,5.215c0,2.205,1.594,4.094,3.837,4.85h-5.727
			c-2.934,0-6.108,2.754-6.108,5.276v17.522c0,1.267,1.185,2.291,2.652,2.291s2.652-1.024,2.652-2.291V66.162h1.227v39.101
			c0,1.657,1.552,3.01,3.47,3.01s3.484-1.34,3.484-3.01v-22.7h1.128v22.688c0,1.657,1.552,3.01,3.484,3.01
			c1.918,0,3.47-1.34,3.47-3.01V66.162h1.227v14.402c0,1.267,1.185,2.291,2.652,2.291c1.467,0,2.652-1.024,2.652-2.291V63.043
			C34.721,60.521,31.548,57.767,28.628,57.767z"/>
		<path fill="#C1272D" stroke="#FFFFFF" stroke-miterlimit="10" d="M62.628,57.767h-5.741c2.243-0.755,3.837-2.644,3.837-4.85
			c0-2.888-2.694-5.215-6.023-5.215c-3.329,0-6.037,2.327-6.037,5.215c0,2.205,1.594,4.094,3.837,4.85h-5.727
			c-2.934,0-6.108,2.754-6.108,5.276v17.522c0,1.267,1.185,2.291,2.652,2.291s2.652-1.024,2.652-2.291V66.162h1.227v39.101
			c0,1.657,1.552,3.01,3.47,3.01c1.918,0,3.484-1.34,3.484-3.01v-22.7h1.128v22.688c0,1.657,1.552,3.01,3.484,3.01
			c1.918,0,3.47-1.34,3.47-3.01V66.162h1.227v14.402c0,1.267,1.185,2.291,2.652,2.291c1.467,0,2.652-1.024,2.652-2.291V63.043
			C68.721,60.521,65.548,57.767,62.628,57.767z"/>
		<path fill="#C1272D" stroke="#FFFFFF" stroke-miterlimit="10" d="M96.628,56.767h-5.741c2.243-0.755,3.837-2.644,3.837-4.85
			c0-2.888-2.694-5.215-6.023-5.215c-3.329,0-6.037,2.327-6.037,5.215c0,2.205,1.594,4.094,3.837,4.85h-5.727
			c-2.934,0-6.108,2.754-6.108,5.276v17.522c0,1.267,1.185,2.291,2.652,2.291s2.652-1.024,2.652-2.291V65.162h1.227v39.101
			c0,1.657,1.552,3.01,3.47,3.01s3.484-1.34,3.484-3.01v-22.7h1.128v22.688c0,1.657,1.552,3.01,3.484,3.01
			c1.918,0,3.47-1.34,3.47-3.01V65.162h1.227v14.402c0,1.267,1.185,2.291,2.652,2.291c1.467,0,2.652-1.024,2.652-2.291V62.043
			C102.721,59.521,99.548,56.767,96.628,56.767z"/>
		<path fill="#C1272D" stroke="#FFFFFF" stroke-miterlimit="10" d="M130.628,56.767h-5.741c2.243-0.755,3.837-2.644,3.837-4.85
			c0-2.888-2.694-5.215-6.023-5.215c-3.329,0-6.037,2.327-6.037,5.215c0,2.205,1.594,4.094,3.837,4.85h-5.727
			c-2.934,0-6.108,2.754-6.108,5.276v17.522c0,1.267,1.185,2.291,2.652,2.291s2.652-1.024,2.652-2.291V65.162h1.227v39.101
			c0,1.657,1.552,3.01,3.47,3.01s3.484-1.34,3.484-3.01v-22.7h1.128v22.688c0,1.657,1.552,3.01,3.484,3.01
			c1.918,0,3.47-1.34,3.47-3.01V65.162h1.227v14.402c0,1.267,1.185,2.291,2.652,2.291s2.652-1.024,2.652-2.291V62.043
			C136.721,59.521,133.548,56.767,130.628,56.767z"/>
		<path fill="#C1272D" stroke="#FFFFFF" stroke-miterlimit="10" d="M167.628,57.767h-5.741c2.243-0.755,3.837-2.644,3.837-4.85
			c0-2.888-2.694-5.215-6.023-5.215c-3.329,0-6.037,2.327-6.037,5.215c0,2.205,1.594,4.094,3.837,4.85h-5.727
			c-2.934,0-6.108,2.754-6.108,5.276v17.522c0,1.267,1.185,2.291,2.652,2.291c1.467,0,2.652-1.024,2.652-2.291V66.162h1.227v39.101
			c0,1.657,1.552,3.01,3.47,3.01s3.484-1.34,3.484-3.01v-22.7h1.128v22.688c0,1.657,1.552,3.01,3.484,3.01
			c1.918,0,3.47-1.34,3.47-3.01V66.162h1.227v14.402c0,1.267,1.185,2.291,2.652,2.291s2.652-1.024,2.652-2.291V63.043
			C173.721,60.521,170.548,57.767,167.628,57.767z"/>
		<path fill="#C1272D" stroke="#FFFFFF" stroke-miterlimit="10" d="M201.628,57.767h-5.741c2.243-0.755,3.837-2.644,3.837-4.85
			c0-2.888-2.694-5.215-6.023-5.215c-3.329,0-6.037,2.327-6.037,5.215c0,2.205,1.594,4.094,3.837,4.85h-5.727
			c-2.934,0-6.108,2.754-6.108,5.276v17.522c0,1.267,1.185,2.291,2.652,2.291c1.467,0,2.652-1.024,2.652-2.291V66.162h1.227v39.101
			c0,1.657,1.552,3.01,3.47,3.01s3.484-1.34,3.484-3.01v-22.7h1.128v22.688c0,1.657,1.552,3.01,3.484,3.01
			c1.918,0,3.47-1.34,3.47-3.01V66.162h1.227v14.402c0,1.267,1.185,2.291,2.652,2.291s2.652-1.024,2.652-2.291V63.043
			C207.721,60.521,204.548,57.767,201.628,57.767z"/>
		<path fill="#C1272D" stroke="#FFFFFF" stroke-miterlimit="10" d="M240.628,56.767h-5.741c2.243-0.755,3.837-2.644,3.837-4.85
			c0-2.888-2.694-5.215-6.023-5.215c-3.329,0-6.037,2.327-6.037,5.215c0,2.205,1.594,4.094,3.837,4.85h-5.727
			c-2.934,0-6.108,2.754-6.108,5.276v17.522c0,1.267,1.185,2.291,2.652,2.291c1.467,0,2.652-1.024,2.652-2.291V65.162h1.227v39.101
			c0,1.657,1.552,3.01,3.47,3.01s3.484-1.34,3.484-3.01v-22.7h1.128v22.688c0,1.657,1.552,3.01,3.484,3.01
			c1.918,0,3.47-1.34,3.47-3.01V65.162h1.227v14.402c0,1.267,1.185,2.291,2.652,2.291s2.652-1.024,2.652-2.291V62.043
			C246.721,59.521,243.548,56.767,240.628,56.767z"/>
		<path fill="#C1272D" stroke="#FFFFFF" stroke-miterlimit="10" d="M274.628,56.767h-5.741c2.243-0.755,3.837-2.644,3.837-4.85
			c0-2.888-2.694-5.215-6.023-5.215s-6.037,2.327-6.037,5.215c0,2.205,1.594,4.094,3.837,4.85h-5.727
			c-2.934,0-6.108,2.754-6.108,5.276v17.522c0,1.267,1.185,2.291,2.652,2.291c1.467,0,2.652-1.024,2.652-2.291V65.162h1.227v39.101
			c0,1.657,1.552,3.01,3.47,3.01s3.484-1.34,3.484-3.01v-22.7h1.128v22.688c0,1.657,1.552,3.01,3.484,3.01
			c1.918,0,3.47-1.34,3.47-3.01V65.162h1.227v14.402c0,1.267,1.185,2.291,2.652,2.291s2.652-1.024,2.652-2.291V62.043
			C280.721,59.521,277.548,56.767,274.628,56.767z"/>
		<path fill="#C1272D" stroke="#FFFFFF" stroke-miterlimit="10" d="M308.628,55.767h-5.741c2.243-0.755,3.837-2.644,3.837-4.85
			c0-2.888-2.694-5.215-6.023-5.215s-6.037,2.327-6.037,5.215c0,2.205,1.594,4.094,3.837,4.85h-5.727
			c-2.934,0-6.108,2.754-6.108,5.276v17.522c0,1.267,1.185,2.291,2.652,2.291c1.467,0,2.652-1.024,2.652-2.291V64.162h1.227v39.101
			c0,1.657,1.552,3.01,3.47,3.01s3.484-1.34,3.484-3.01v-22.7h1.128v22.688c0,1.657,1.552,3.01,3.484,3.01
			c1.918,0,3.47-1.34,3.47-3.01V64.162h1.227v14.402c0,1.267,1.185,2.291,2.652,2.291s2.652-1.024,2.652-2.291V61.043
			C314.721,58.521,311.548,55.767,308.628,55.767z"/>
		<path fill="#C1272D" stroke="#FFFFFF" stroke-miterlimit="10" d="M342.628,55.767h-5.741c2.243-0.755,3.837-2.644,3.837-4.85
			c0-2.888-2.694-5.215-6.023-5.215s-6.037,2.327-6.037,5.215c0,2.205,1.594,4.094,3.837,4.85h-5.727
			c-2.934,0-6.108,2.754-6.108,5.276v17.522c0,1.267,1.185,2.291,2.652,2.291c1.467,0,2.652-1.024,2.652-2.291V64.162h1.227v39.101
			c0,1.657,1.552,3.01,3.47,3.01s3.484-1.34,3.484-3.01v-22.7h1.128v22.688c0,1.657,1.552,3.01,3.484,3.01
			c1.918,0,3.47-1.34,3.47-3.01V64.162h1.227v14.402c0,1.267,1.185,2.291,2.652,2.291s2.652-1.024,2.652-2.291V61.043
			C348.721,58.521,345.548,55.767,342.628,55.767z"/>
		<path fill="#C1272D" stroke="#FFFFFF" stroke-miterlimit="10" d="M379.628,56.767h-5.741c2.243-0.755,3.837-2.644,3.837-4.85
			c0-2.888-2.694-5.215-6.023-5.215s-6.037,2.327-6.037,5.215c0,2.205,1.594,4.094,3.837,4.85h-5.727
			c-2.934,0-6.108,2.754-6.108,5.276v17.522c0,1.267,1.185,2.291,2.652,2.291c1.467,0,2.652-1.024,2.652-2.291V65.162h1.227v39.101
			c0,1.657,1.552,3.01,3.47,3.01s3.484-1.34,3.484-3.01v-22.7h1.128v22.688c0,1.657,1.552,3.01,3.484,3.01
			c1.918,0,3.47-1.34,3.47-3.01V65.162h1.227v14.402c0,1.267,1.185,2.291,2.652,2.291s2.652-1.024,2.652-2.291V62.043
			C385.721,59.521,382.548,56.767,379.628,56.767z"/>
		<path fill="#C1272D" stroke="#FFFFFF" stroke-miterlimit="10" d="M413.628,56.767h-5.741c2.243-0.755,3.837-2.644,3.837-4.85
			c0-2.888-2.694-5.215-6.023-5.215s-6.037,2.327-6.037,5.215c0,2.205,1.594,4.094,3.837,4.85h-5.727
			c-2.934,0-6.108,2.754-6.108,5.276v17.522c0,1.267,1.185,2.291,2.652,2.291c1.467,0,2.652-1.024,2.652-2.291V65.162h1.227v39.101
			c0,1.657,1.552,3.01,3.47,3.01s3.484-1.34,3.484-3.01v-22.7h1.128v22.688c0,1.657,1.552,3.01,3.484,3.01
			c1.918,0,3.47-1.34,3.47-3.01V65.162h1.227v14.402c0,1.267,1.185,2.291,2.652,2.291s2.652-1.024,2.652-2.291V62.043
			C419.721,59.521,416.548,56.767,413.628,56.767z"/>
		<path fill="#C1272D" stroke="#FFFFFF" stroke-miterlimit="10" d="M453.628,55.767h-5.741c2.243-0.755,3.837-2.644,3.837-4.85
			c0-2.888-2.694-5.215-6.023-5.215s-6.037,2.327-6.037,5.215c0,2.205,1.594,4.094,3.837,4.85h-5.727
			c-2.934,0-6.108,2.754-6.108,5.276v17.522c0,1.267,1.185,2.291,2.652,2.291c1.467,0,2.652-1.024,2.652-2.291V64.162h1.227v39.101
			c0,1.657,1.552,3.01,3.47,3.01s3.484-1.34,3.484-3.01v-22.7h1.128v22.688c0,1.657,1.552,3.01,3.484,3.01
			c1.918,0,3.47-1.34,3.47-3.01V64.162h1.227v14.402c0,1.267,1.185,2.291,2.652,2.291s2.652-1.024,2.652-2.291V61.043
			C459.721,58.521,456.548,55.767,453.628,55.767z"/>
	</g>
</g>
<style>
#g-2021Sept-Dec-Artboard_1-interactions-img rect, #g-2021Sept-Dec-Artboard_1-interactions-img circle, #g-2021Sept-Dec-Artboard_1-interactions-img path, #g-2021Sept-Dec-Artboard_1-interactions-img line, #g-2021Sept-Dec-Artboard_1-interactions-img polyline, #g-2021Sept-Dec-Artboard_1-interactions-img polygon { vector-effect: non-scaling-stroke; }
</style>
</svg>

