<?xml version="1.0" encoding="utf-8"?>
<!-- Generator: Adobe Illustrator 26.2.1, SVG Export Plug-In . SVG Version: 6.00 Build 0)  -->
<svg version="1.2" baseProfile="tiny" id="g-unknown-Artboard_1-interactions-img" xmlns="http://www.w3.org/2000/svg" xmlns:xlink="http://www.w3.org/1999/xlink"
	 x="0px" y="0px" viewBox="0 0 1080 374" overflow="visible" xml:space="preserve">
<g>
	<path fill="#FFFFFF" stroke="#C1272D" stroke-miterlimit="10" d="M356.058,76.688h-9.214c3.599-0.852,6.157-2.982,6.157-5.469
		c0-3.257-4.324-5.881-9.666-5.881c-5.343,0-9.689,2.625-9.689,5.881c0,2.487,2.558,4.617,6.157,5.469h-9.191
		c-4.709,0-9.802,3.105-9.802,5.95v19.759c0,1.429,1.902,2.583,4.256,2.583c2.354,0,4.256-1.154,4.256-2.583V86.156h1.969v44.094
		c0,1.869,2.49,3.394,5.569,3.394s5.592-1.512,5.592-3.394v-25.599h1.811v25.585c0,1.869,2.49,3.394,5.592,3.394
		c3.079,0,5.569-1.511,5.569-3.394V86.156h1.969v16.242c0,1.429,1.902,2.583,4.256,2.583c2.354,0,4.256-1.154,4.256-2.583V82.638
		C365.838,79.794,360.744,76.688,356.058,76.688z"/>
	<path fill="#FFFFFF" stroke="#C1272D" stroke-miterlimit="10" d="M407.058,76.688h-9.214c3.599-0.852,6.157-2.982,6.157-5.469
		c0-3.257-4.324-5.881-9.666-5.881c-5.343,0-9.689,2.625-9.689,5.881c0,2.487,2.558,4.617,6.157,5.469h-9.191
		c-4.709,0-9.802,3.105-9.802,5.95v19.759c0,1.429,1.902,2.583,4.256,2.583c2.354,0,4.256-1.154,4.256-2.583V86.156h1.969v44.094
		c0,1.869,2.49,3.394,5.569,3.394s5.592-1.512,5.592-3.394v-25.599h1.811v25.585c0,1.869,2.49,3.394,5.592,3.394
		c3.079,0,5.569-1.511,5.569-3.394V86.156h1.969v16.242c0,1.429,1.902,2.583,4.256,2.583c2.354,0,4.256-1.154,4.256-2.583V82.638
		C416.838,79.794,411.744,76.688,407.058,76.688z"/>
	<path fill="#FFFFFF" stroke="#C1272D" stroke-miterlimit="10" d="M458.773,76.688h-9.214c3.599-0.852,6.157-2.982,6.157-5.469
		c0-3.257-4.324-5.881-9.666-5.881c-5.342,0-9.689,2.625-9.689,5.881c0,2.487,2.558,4.617,6.157,5.469h-9.191
		c-4.709,0-9.802,3.105-9.802,5.95v19.759c0,1.429,1.902,2.583,4.256,2.583c2.354,0,4.256-1.154,4.256-2.583V86.156h1.969v44.094
		c0,1.869,2.49,3.394,5.569,3.394s5.592-1.512,5.592-3.394v-25.599h1.811v25.585c0,1.869,2.49,3.394,5.592,3.394
		c3.079,0,5.569-1.511,5.569-3.394V86.156h1.969v16.242c0,1.429,1.902,2.583,4.256,2.583s4.256-1.154,4.256-2.583V82.638
		C468.553,79.794,463.459,76.688,458.773,76.688z"/>
	<path fill="#FFFFFF" stroke="#C1272D" stroke-miterlimit="10" d="M514.148,76.441l-9.214-0.035
		c3.603-0.838,6.169-2.958,6.178-5.445c0.012-3.257-4.301-5.898-9.644-5.918s-9.699,2.587-9.711,5.844
		c-0.01,2.487,2.54,4.627,6.137,5.492l-9.191-0.035c-4.709-0.018-9.814,3.068-9.825,5.912l-0.076,19.759
		c-0.005,1.429,1.892,2.591,4.246,2.6s4.26-1.138,4.266-2.567l0.062-16.242l1.969,0.008l-0.169,44.094
		c-0.007,1.869,2.477,3.404,5.556,3.415c3.079,0.012,5.597-1.49,5.604-3.373l0.098-25.599l1.811,0.007l-0.098,25.585
		c-0.007,1.869,2.477,3.404,5.578,3.415c3.079,0.012,5.575-1.49,5.582-3.373l0.169-44.08l1.969,0.008l-0.062,16.242
		c-0.005,1.429,1.892,2.591,4.246,2.6s4.26-1.138,4.266-2.567l0.076-19.759C523.916,79.584,518.834,76.459,514.148,76.441z"/>
	<path fill="#FFFFFF" stroke="#C1272D" stroke-miterlimit="10" d="M565.863,76.639l-9.214-0.035
		c3.603-0.838,6.169-2.958,6.178-5.445c0.012-3.257-4.301-5.898-9.644-5.918s-9.699,2.587-9.711,5.844
		c-0.01,2.487,2.54,4.627,6.136,5.492l-9.191-0.035c-4.709-0.018-9.814,3.068-9.825,5.912l-0.076,19.759
		c-0.005,1.429,1.892,2.591,4.246,2.6s4.26-1.138,4.266-2.567l0.062-16.242l1.969,0.008l-0.169,44.094
		c-0.007,1.869,2.477,3.404,5.556,3.415c3.079,0.012,5.597-1.49,5.604-3.373l0.098-25.599l1.811,0.007l-0.098,25.585
		c-0.007,1.869,2.477,3.404,5.578,3.415c3.079,0.012,5.575-1.49,5.582-3.373l0.169-44.08l1.969,0.008l-0.062,16.242
		c-0.005,1.429,1.892,2.591,4.246,2.6s4.26-1.138,4.266-2.567l0.076-19.759C575.63,79.782,570.549,76.657,565.863,76.639z"/>
	<path fill="#FFFFFF" stroke="#C1272D" stroke-miterlimit="10" d="M617.143,77.835L607.93,77.8c3.603-0.838,6.169-2.958,6.178-5.445
		c0.013-3.257-4.301-5.898-9.644-5.918c-5.343-0.02-9.699,2.587-9.711,5.844c-0.01,2.487,2.54,4.627,6.136,5.492l-9.191-0.035
		c-4.709-0.018-9.814,3.068-9.825,5.912l-0.076,19.759c-0.005,1.429,1.892,2.591,4.246,2.6s4.26-1.138,4.266-2.567l0.062-16.242
		l1.969,0.008l-0.169,44.094c-0.007,1.869,2.477,3.404,5.556,3.415c3.079,0.012,5.597-1.49,5.604-3.373l0.098-25.599l1.811,0.007
		l-0.098,25.585c-0.007,1.869,2.477,3.404,5.578,3.415c3.079,0.012,5.575-1.49,5.582-3.373l0.169-44.08l1.969,0.008l-0.062,16.242
		c-0.005,1.429,1.892,2.591,4.246,2.6s4.26-1.138,4.266-2.567l0.076-19.759C626.911,80.978,621.829,77.853,617.143,77.835z"/>
	<path fill="#C1272D" stroke="#FFFFFF" stroke-miterlimit="10" d="M306.773,77.688h-9.214c3.599-0.852,6.157-2.982,6.157-5.469
		c0-3.257-4.324-5.881-9.666-5.881c-5.342,0-9.689,2.625-9.689,5.881c0,2.487,2.558,4.617,6.157,5.469h-9.191
		c-4.709,0-9.802,3.105-9.802,5.95v19.759c0,1.429,1.902,2.583,4.256,2.583c2.354,0,4.256-1.154,4.256-2.583V87.156h1.969v44.094
		c0,1.869,2.49,3.394,5.569,3.394s5.592-1.512,5.592-3.394v-25.599h1.811v25.585c0,1.869,2.49,3.394,5.592,3.394
		c3.079,0,5.569-1.511,5.569-3.394V87.156h1.969v16.242c0,1.429,1.902,2.583,4.256,2.583s4.256-1.154,4.256-2.583V83.638
		C316.553,80.794,311.459,77.688,306.773,77.688z"/>
</g>
<style>
#g-unknown-Artboard_1-interactions-img rect, #g-unknown-Artboard_1-interactions-img circle, #g-unknown-Artboard_1-interactions-img path, #g-unknown-Artboard_1-interactions-img line, #g-unknown-Artboard_1-interactions-img polyline, #g-unknown-Artboard_1-interactions-img polygon { vector-effect: non-scaling-stroke; }
</style>
</svg>

